<svg class='figure figure--form' width="57" height="124" xmlns="http://www.w3.org/2000/svg">
 <!-- Created with Method Draw - http://github.com/duopixel/Method-Draw/ -->
 <g>
  <title>Layer 1</title>
 </g>
 <g>
  <title>background</title>
  <polyline id="svg_2" fill-rule="evenodd" points="3.1100006103515625,60.69999694824219 3.1100006103515625,27.709999084472656 3.6999969482421875,21.59000015258789 4.7700042724609375,17.830001831054688 7.5800018310546875,12.520000457763672 10.330001831054688,9.290000915527344 14.050003051757812,6.309999465942383 18.220001220703125,3.9200000762939453 22.839996337890625,2.75 27.68000030517578,2.0799999237060547 32.56999969482422,2.3400001525878906 37.31999969482422,3.530000686645508 41.76000213623047,5.590000152587891 45.720001220703125,8.469999313354492 49.06999969482422,12.040000915527344 51.66999816894531,16.18000030517578 53.44999694824219,20.740001678466797 54.32000732421875,25.560001373291016 54.32000732421875,62.849998474121094 53.58000183105469,67.19000244140625 52.099998474121094,71.33999633789062 49.94000244140625,75.16999816894531 47.150001525878906,78.58000183105469 43.80999755859375,81.47000122070312 43.80999755859375,93.68000030517578 43.80999755859375,105.95999908447266 43.44000244140625,109.30999755859375 42.33000183105469,112.48999786376953 40.529998779296875,115.33999633789062 38.150001525878906,117.72000122070312 35.290000915527344,119.52000427246094 32.11000061035156,120.6300048828125 28.76000213623047,121.00999450683594 25.410003662109375,120.6300048828125 22.230003356933594,119.52000427246094 19.3800048828125,117.72000122070312 16.990005493164062,115.33999633789062 15.199996948242188,112.48999786376953 14.089996337890625,109.30999755859375 13.709999084472656,105.95999908447266 13.709999084472656,93.43000030517578 13.709999084472656,81.47000122070312 10.080001831054688,78.2699966430664 7.120002746582031,74.45999908447266 4.9199981689453125,70.1500015258789 3.5699996948242188,65.51000213623047 3.1100006103515625,60.69999694824219 "/>
  <g id="svg_3" clip-path="url(#clip-path)">
   <path id="svg_39" fill="none" stroke="#fff" stroke-linecap="round" stroke-linejoin="round" stroke-width="0px" d="m13.71,81.47a25.65,25.65 0 0 1 -10.6,-20.77"/>
  </g>
  <g id="svg_9" clip-path="url(#clip-path)">
   <path id="svg_41" fill="none" stroke="#fff" stroke-linecap="round" stroke-linejoin="round" stroke-width="0px" d="m54.32,71.85a25.64,25.64 0 0 1 -10.51,18.62"/>
  </g>
  <path id="svg_11" fill="none" stroke="#fff" stroke-linecap="round" stroke-linejoin="round" stroke-width="0.501708px" d="m54.41,27.71a25.65,25.65 0 0 0 -25.65,-25.65c-14.17,0 -25.53,10.24 -25.53,24.41s11.37,26.89 25.53,26.89a25.65,25.65 0 0 0 25.65,-25.65"/>
  <g id="svg_13" clip-path="url(#clip-path)">
   <path id="svg_44" fill="none" stroke="#fff" stroke-linecap="round" stroke-linejoin="round" stroke-width="0.501708px" d="m43.81,27.71a15.05,15.05 0 1 0 -15,15.05a15.05,15.05 0 0 0 15,-15.05"/>
  </g>
  <g id="svg_15" clip-path="url(#clip-path)">
   <path id="svg_46" fill="none" stroke="#fff" stroke-linecap="round" stroke-linejoin="round" stroke-width="0.501708px" d="m54.41,60.7a25.65,25.65 0 1 1 -51.3,0"/>
  </g>
  <g id="svg_17" clip-path="url(#clip-path)">
   <path id="svg_48" fill="none" stroke="#fff" stroke-linecap="round" stroke-linejoin="round" stroke-width="0.501708px" d="m15.73,35.23a15.05,15.05 0 0 1 26.07,0"/>
  </g>
  <line id="svg_21" fill="none" stroke="#fff" stroke-linecap="round" stroke-linejoin="round" stroke-width="0.501708px" y2="36.71" x2="54.41" y1="71.85" x1="54.41"/>
  <line id="svg_22" fill="none" stroke="#fff" stroke-linecap="round" stroke-linejoin="round" stroke-width="0.501708px" y2="27.71" x2="3.11" y1="62.96" x1="3.11"/>
  <line id="svg_23" fill="none" stroke="#fff" stroke-linecap="round" stroke-linejoin="round" stroke-width="0.501708px" y2="81.47" x2="13.71" y1="105.96" x1="13.71"/>
  <line stroke="null" stroke-linecap="null" stroke-linejoin="null" id="svg_28" y2="119.765013" x2="4.265016" y1="3.765015" x1="54.265014" fill-opacity="null" stroke-opacity="null" stroke-width="null" fill="none"/>
  <line stroke="null" stroke-linecap="null" stroke-linejoin="null" id="svg_29" y2="119.765013" x2="4.265016" y1="3.765015" x1="54.265014" fill-opacity="null" stroke-opacity="null" stroke-width="null" fill="none"/>
  <line stroke="null" stroke-linecap="null" stroke-linejoin="null" id="svg_30" y2="119.765013" x2="4.265016" y1="3.765015" x1="54.265014" fill-opacity="null" stroke-opacity="null" stroke-width="null" fill="none"/>
  <line stroke="null" stroke-linecap="null" stroke-linejoin="null" id="svg_31" y2="123.765008" x2="62.265014" y1="-5.234983" x1="-4.734985" fill-opacity="null" stroke-opacity="null" stroke-width="null" fill="none"/>
  <line stroke-linecap="null" stroke-linejoin="null" id="svg_33" y2="112.765015" x2="72.265015" y1="-20.234985" x1="-36.734985" stroke-width="null" fill="none"/>
  <line stroke-linecap="null" stroke-linejoin="null" id="svg_34" y2="105.765015" x2="79.265015" y1="72.765015" x1="42.265015" stroke-width="null" fill="none"/>
  <line stroke-linecap="null" stroke-linejoin="null" id="svg_36" y2="16.765015" x2="14.265015" y1="82.765015" x1="46.265015" stroke-width="null" fill="none"/>
  <line stroke-linecap="null" stroke-linejoin="null" id="svg_37" y2="43.765015" x2="29.265015" y1="21.765015" x1="1.265015" stroke-width="null" fill="none"/>
 </g>
</svg>