<svg class='figure' data-name="Слой 1" xmlns="http://www.w3.org/2000/svg" viewBox="0 0 141.53 141.53">
    <title>11Монтажная область 1</title>
    <polyline
            points="92.36 24.28 92.36 52.66 107.16 67.45 115.7 76 115.7 90.19 45.69 113.52 22.35 90.19 22.35 76 22.35 47.61 92.36 24.28"
            style="fill-rule:evenodd"/>
    <line x1="92.36" y1="24.28" x2="22.35" y2="47.61"
          style="fill:none;stroke:#fff;stroke-linecap:round;stroke-linejoin:round;stroke-width:0px"/>
    <line x1="22.35" y1="90.18" x2="45.68" y2="113.52"
          style="fill:none;stroke:#fff;stroke-linecap:round;stroke-linejoin:round;stroke-width:0px"/>
    <line x1="45.68" y1="113.52" x2="115.7" y2="90.18"
          style="fill:none;stroke:#fff;stroke-linecap:round;stroke-linejoin:round;stroke-width:0px"/>
    <line x1="115.7" y1="75.99" x2="107.16" y2="67.45"
          style="fill:none;stroke:#fff;stroke-linecap:round;stroke-linejoin:round;stroke-width:0px"/>
    <line x1="107.16" y1="67.45" x2="92.36" y2="52.66"
          style="fill:none;stroke:#fff;stroke-linecap:round;stroke-linejoin:round;stroke-width:0px"/>
    <polyline points="-148.9 -288.95 438.1 -288.95 438.1 295.05 -148.9 295.05 -148.9 -288.95"
              style="fill:none;fill-rule:evenodd"/>
    <line x1="22.35" y1="90.18" x2="45.68" y2="113.52"
          style="fill:none;stroke:#fff;stroke-linecap:round;stroke-linejoin:round;stroke-width:0.5017075538635254px"/>
    <line x1="115.7" y1="90.18" x2="45.68" y2="113.52"
          style="fill:none;stroke:#fff;stroke-linecap:round;stroke-linejoin:round;stroke-width:0.5017075538635254px"/>
    <line x1="115.7" y1="75.99" x2="45.68" y2="99.33"
          style="fill:none;stroke:#fff;stroke-linecap:round;stroke-linejoin:round;stroke-width:0.5017075538635254px"/>
    <line x1="22.35" y1="90.18" x2="22.35" y2="47.61"
          style="fill:none;stroke:#fff;stroke-linecap:round;stroke-linejoin:round;stroke-width:0.5017075538635254px"/>
    <line x1="115.7" y1="90.18" x2="115.7" y2="75.99"
          style="fill:none;stroke:#fff;stroke-linecap:round;stroke-linejoin:round;stroke-width:0.5017075538635254px"/>
    <line x1="92.36" y1="24.28" x2="22.35" y2="47.61"
          style="fill:none;stroke:#fff;stroke-linecap:round;stroke-linejoin:round;stroke-width:0.5017075538635254px"/>
    <line x1="92.36" y1="52.66" x2="115.7" y2="75.99"
          style="fill:none;stroke:#fff;stroke-linecap:round;stroke-linejoin:round;stroke-width:0.5017075538635254px"/>
    <line x1="92.36" y1="24.28" x2="45.68" y2="70.95"
          style="fill:none;stroke:#fff;stroke-linecap:round;stroke-linejoin:round;stroke-width:0.5017075538635254px"/>
    <line x1="45.68" y1="113.52" x2="45.68" y2="70.95"
          style="fill:none;stroke:#fff;stroke-linecap:round;stroke-linejoin:round;stroke-width:0.5017075538635254px"/>
    <line x1="92.36" y1="52.66" x2="45.68" y2="99.33"
          style="fill:none;stroke:#fff;stroke-linecap:round;stroke-linejoin:round;stroke-width:0.5017075538635254px"/>
    <line x1="22.35" y1="47.61" x2="45.68" y2="70.95"
          style="fill:none;stroke:#fff;stroke-linecap:round;stroke-linejoin:round;stroke-width:0.5017075538635254px"/>
    <line x1="115.7" y1="90.18" x2="45.68" y2="113.52"
          style="fill:none;stroke:#fff;stroke-linecap:round;stroke-linejoin:round;stroke-width:0.5017075538635254px"/>
    <line x1="34.01" y1="101.86" x2="34.01" y2="59.28"
          style="fill:none;stroke:#fff;stroke-linecap:round;stroke-linejoin:round;stroke-width:0.5017075538635254px"/>
    <line x1="22.35" y1="85.11" x2="22.35" y2="70.92"
          style="fill:none;stroke:#fff;stroke-linecap:round;stroke-linejoin:round;stroke-width:0.5017075538635254px"/>
    <line x1="57.35" y1="35.95" x2="34.01" y2="59.28"
          style="fill:none;stroke:#fff;stroke-linecap:round;stroke-linejoin:round;stroke-width:0.5017075538635254px"/>
    <line x1="33.02" y1="10.04" x2="38.04" y2="5.02"
          style="fill:none;stroke:#fff;stroke-linecap:round;stroke-linejoin:round;stroke-width:0.5017075538635254px"/>
    <polyline points="-148.9 -288.95 438.1 -288.95 438.1 295.05 -148.9 295.05 -148.9 -288.95"
              style="fill:none;fill-rule:evenodd"/>
</svg>