<svg width="55.5" height="63" xmlns="http://www.w3.org/2000/svg">
 <!-- Created with Method Draw - http://github.com/duopixel/Method-Draw/ -->
 <g>
  <title>Layer 1</title>
  <polyline id="svg_2" fill="blue" fill-rule="evenodd" points="2.1100006103515625,59.900001525878906 2.1100006103515625,26.919998168945312 2.5800018310546875,22.049999237060547 3.9599990844726562,17.349998474121094 6.220001220703125,13 9.25,9.15999984741211 12.959999084472656,5.970001220703125 17.209999084472656,3.5400009155273438 21.839996337890625,1.9599990844726562 26.69000244140625,1.2900009155273438 31.56999969482422,1.5499992370605469 36.31999969482422,2.740001678466797 40.76000213623047,4.799999237060547 44.720001220703125,7.6699981689453125 48.06999969482422,11.25 50.66999816894531,15.389999389648438 52.44999694824219,19.950000762939453 53.31999969482422,24.759998321533203 53.31999969482422,62.05999755859375 53.30999755859375,62.16999816894531 42.80999755859375,62.16999816894531 42.37000274658203,58.43000030517578 41.019996643066406,54.91999816894531 38.839996337890625,51.86000061035156 35.959999084472656,49.44000244140625 32.58000183105469,47.80000305175781 28.900001525878906,47.05000305175781 25.139999389648438,47.23999786376953 21.550003051757812,48.349998474121094 18.349998474121094,50.31999969482422 15.729999542236328,53.01000213623047 13.869998931884766,56.279998779296875 12.869998931884766,59.900001525878906 12.869998931884766,62.16999816894531 12.709999084472656,62.16999816894531 2.2099990844726562,62.16999816894531 2.1100006103515625,59.900001525878906 "/>
  <g id="svg_3" clip-path="url(#clip-path)">
   <path id="svg_29" fill="none" stroke="#fff" stroke-linecap="round" stroke-linejoin="round" stroke-width="0px" d="m2.21,62.16q-0.1,-1.13 -0.1,-2.26"/>
  </g>
  <g id="svg_5" clip-path="url(#clip-path)">
   <path id="svg_31" fill="none" stroke="#fff" stroke-linecap="round" stroke-linejoin="round" stroke-width="0px" d="m12.87,59.9a15.05,15.05 0 0 1 29.95,2.15s0,0.07 0,0.11"/>
  </g>
  <g id="svg_7" clip-path="url(#clip-path)">
   <path id="svg_33" fill="none" stroke="#fff" stroke-linecap="round" stroke-linejoin="round" stroke-width="0px" d="m53.32,62.06l0,0.11"/>
  </g>
  <polyline id="svg_11" fill="none" fill-rule="evenodd" points="63.62999725341797,-243.95001220703125 650.6300048828125,-243.95001220703125 650.6300048828125,340.04998779296875 63.62999725341797,340.04998779296875 63.62999725341797,-243.95001220703125 "/>
  <g id="svg_12" clip-path="url(#clip-path)">
   <path id="svg_38" fill="none" stroke="#fff" stroke-linecap="round" stroke-linejoin="round" stroke-width="0.501708px" d="m12.87,26.92a15,15 0 1 1 29.95,0"/>
  </g>
  <g id="svg_14" clip-path="url(#clip-path)">
   <path id="svg_40" fill="none" stroke="#fff" stroke-linecap="round" stroke-linejoin="round" stroke-width="0.501708px" d="m12.71,62.16s0,-0.07 0,-0.11a15.05,15.05 0 1 1 30.1,0s0,0.07 0,0.11"/>
  </g>
  <line id="svg_16" fill="none" stroke="#fff" stroke-linecap="round" stroke-linejoin="round" stroke-width="0.501708px" y2="26.92" x2="53.41" y1="61.8" x1="53.41"/>
  <line id="svg_17" fill="none" stroke="#fff" stroke-linecap="round" stroke-linejoin="round" stroke-width="0.501708px" y2="26.92" x2="2.11" y1="62.16" x1="2.11"/>
  <line id="svg_18" fill="none" stroke="#fff" stroke-linecap="round" stroke-linejoin="round" stroke-width="0.501708px" y2="26.92" x2="42.81" y1="26.92" x1="53.32"/>
  <line id="svg_19" fill="none" stroke="#fff" stroke-linecap="round" stroke-linejoin="round" stroke-width="0.501708px" y2="26.92" x2="2.11" y1="26.92" x1="12.87"/>
  <line id="svg_20" fill="none" stroke="#fff" stroke-linecap="round" stroke-linejoin="round" stroke-width="0.501708px" y2="26.92" x2="12.87" y1="62.16" x1="12.87"/>
  <line id="svg_21" fill="none" stroke="#fff" stroke-linecap="round" stroke-linejoin="round" stroke-width="0.501708px" y2="62.16" x2="2.11" y1="62.16" x1="12.87"/>
  <line id="svg_22" fill="none" stroke="#fff" stroke-linecap="round" stroke-linejoin="round" stroke-width="0.501708px" y2="62.16" x2="42.66" y1="62.16" x1="53.41"/>
  <line id="svg_23" fill="none" stroke="#fff" stroke-linecap="round" stroke-linejoin="round" stroke-width="0.501708px" y2="26.92" x2="42.81" y1="62.16" x1="42.81"/>
  <line id="svg_24" fill="none" stroke="#fff" stroke-linecap="round" stroke-linejoin="round" stroke-width="0.501708px" y2="14.66" x2="36.65" y1="49.91" x1="36.65"/>
  <line id="svg_25" fill="none" stroke="#fff" stroke-linecap="round" stroke-linejoin="round" stroke-width="0.501708px" y2="14.66" x2="36.65" y1="5.93" x1="42.51"/>
  <line id="svg_26" fill="none" stroke="#fff" stroke-linecap="round" stroke-linejoin="round" stroke-width="0.501708px" y2="43.41" x2="2.11" y1="43.41" x1="12.87"/>
  <polyline id="svg_27" fill="none" fill-rule="evenodd" points="-66.37000274658203,-160.95001220703125 520.6300048828125,-160.95001220703125 520.6300048828125,423.04998779296875 -66.37000274658203,423.04998779296875 -66.37000274658203,-160.95001220703125 "/>
 </g>
</svg>