<svg id="Слой_1" data-name="Слой 1" xmlns="http://www.w3.org/2000/svg" viewBox="0 0 141.53 141.53">
    <title>9Монтажная область 1</title>
    <polyline
            points="22.35 63.49 69.02 16.82 115.7 63.49 115.88 77.68 115.7 77.68 99.09 94.29 69.02 124.36 22.35 77.68 22.35 63.49"
            style="fill:blue;fill-rule:evenodd"/>
    <line x1="22.35" y1="77.68" x2="69.02" y2="124.36"
          style="fill:none;stroke:#fff;stroke-linecap:round;stroke-linejoin:round;stroke-width:0px"/>
    <line x1="69.02" y1="124.36" x2="99.09" y2="94.29"
          style="fill:none;stroke:#fff;stroke-linecap:round;stroke-linejoin:round;stroke-width:0px"/>
    <line x1="99.09" y1="94.29" x2="115.7" y2="77.68"
          style="fill:none;stroke:#fff;stroke-linecap:round;stroke-linejoin:round;stroke-width:0px"/>
    <line x1="115.88" y1="77.68" x2="115.7" y2="63.49"
          style="fill:none;stroke:#fff;stroke-linecap:round;stroke-linejoin:round;stroke-width:0px"/>
    <line x1="115.7" y1="63.49" x2="69.02" y2="16.82"
          style="fill:none;stroke:#fff;stroke-linecap:round;stroke-linejoin:round;stroke-width:0px"/>
    <line x1="69.02" y1="16.82" x2="22.35" y2="63.49"
          style="fill:none;stroke:#fff;stroke-linecap:round;stroke-linejoin:round;stroke-width:0px"/>
    <polyline points="-431.95 -147.42 155.05 -147.42 155.05 436.58 -431.95 436.58 -431.95 -147.42"
              style="fill:none;fill-rule:evenodd"/>
    <line x1="22.35" y1="77.68" x2="69.02" y2="124.36"
          style="fill:none;stroke:#fff;stroke-linecap:round;stroke-linejoin:round;stroke-width:0.5017075538635254px"/>
    <line x1="115.7" y1="77.68" x2="69.02" y2="124.36"
          style="fill:none;stroke:#fff;stroke-linecap:round;stroke-linejoin:round;stroke-width:0.5017075538635254px"/>
    <line x1="22.35" y1="63.49" x2="69.02" y2="110.17"
          style="fill:none;stroke:#fff;stroke-linecap:round;stroke-linejoin:round;stroke-width:0.5017075538635254px"/>
    <line x1="115.7" y1="63.49" x2="69.02" y2="110.17"
          style="fill:none;stroke:#fff;stroke-linecap:round;stroke-linejoin:round;stroke-width:0.5017075538635254px"/>
    <line x1="69.02" y1="124.36" x2="69.02" y2="110.17"
          style="fill:none;stroke:#fff;stroke-linecap:round;stroke-linejoin:round;stroke-width:0.5017075538635254px"/>
    <line x1="22.35" y1="77.68" x2="22.35" y2="63.49"
          style="fill:none;stroke:#fff;stroke-linecap:round;stroke-linejoin:round;stroke-width:0.5017075538635254px"/>
    <line x1="115.7" y1="77.68" x2="115.7" y2="63.49"
          style="fill:none;stroke:#fff;stroke-linecap:round;stroke-linejoin:round;stroke-width:0.5017075538635254px"/>
    <line x1="69.02" y1="16.82" x2="22.35" y2="63.49"
          style="fill:none;stroke:#fff;stroke-linecap:round;stroke-linejoin:round;stroke-width:0.5017075538635254px"/>
    <line x1="69.02" y1="16.82" x2="115.7" y2="63.49"
          style="fill:none;stroke:#fff;stroke-linecap:round;stroke-linejoin:round;stroke-width:0.5017075538635254px"/>
    <line x1="92.36" y1="40.15" x2="45.68" y2="86.83"
          style="fill:none;stroke:#fff;stroke-linecap:round;stroke-linejoin:round;stroke-width:0.5017075538635254px"/>
    <line x1="45.68" y1="101.02" x2="45.68" y2="86.83"
          style="fill:none;stroke:#fff;stroke-linecap:round;stroke-linejoin:round;stroke-width:0.5017075538635254px"/>
    <line x1="92.36" y1="101.02" x2="92.36" y2="86.83"
          style="fill:none;stroke:#fff;stroke-linecap:round;stroke-linejoin:round;stroke-width:0.5017075538635254px"/>
    <line x1="45.68" y1="86.83" x2="92.36" y2="86.83"
          style="fill:none;stroke:#fff;stroke-linecap:round;stroke-linejoin:round;stroke-width:0.5017075538635254px"/>
    <polyline points="-431.95 -147.42 155.05 -147.42 155.05 436.58 -431.95 436.58 -431.95 -147.42"
              style="fill:none;fill-rule:evenodd"/>
</svg>