<svg id="Слой_1" data-name="Слой 1" xmlns="http://www.w3.org/2000/svg" viewBox="0 0 141.53 141.53">
    <title>14Монтажная область 1</title>
    <polyline
            points="59.96 33.41 69.81 23.57 96.41 50.17 96.41 68.99 83.11 82.29 83.11 101.1 69.81 114.41 43.2 87.8 43.2 50.17 59.96 33.41"
            style="fill:blue;fill-rule:evenodd"/>
    <line x1="59.96" y1="33.41" x2="43.2" y2="50.17"
          style="fill:none;stroke:#fff;stroke-linecap:round;stroke-linejoin:round;stroke-width:0px"/>
    <line x1="43.2" y1="87.8" x2="69.81" y2="114.41"
          style="fill:none;stroke:#fff;stroke-linecap:round;stroke-linejoin:round;stroke-width:0px"/>
    <line x1="69.81" y1="114.41" x2="83.11" y2="101.11"
          style="fill:none;stroke:#fff;stroke-linecap:round;stroke-linejoin:round;stroke-width:0px"/>
    <line x1="83.11" y1="82.29" x2="96.41" y2="68.99"
          style="fill:none;stroke:#fff;stroke-linecap:round;stroke-linejoin:round;stroke-width:0px"/>
    <line x1="96.41" y1="50.17" x2="69.81" y2="23.57"
          style="fill:none;stroke:#fff;stroke-linecap:round;stroke-linejoin:round;stroke-width:0px"/>
    <line x1="69.81" y1="23.57" x2="59.96" y2="33.41"
          style="fill:none;stroke:#fff;stroke-linecap:round;stroke-linejoin:round;stroke-width:0px"/>
    <polyline points="59.71 94.28 63.87 98.44 63.87 108.47 54.65 117.69 50.49 113.53 50.49 103.49 59.71 94.28"
              style="fill:blue;fill-rule:evenodd"/>
    <line x1="59.71" y1="94.27" x2="50.49" y2="103.49"
          style="fill:none;stroke:#fff;stroke-linecap:round;stroke-linejoin:round;stroke-width:0px"/>
    <line x1="50.49" y1="113.53" x2="54.65" y2="117.69"
          style="fill:none;stroke:#fff;stroke-linecap:round;stroke-linejoin:round;stroke-width:0px"/>
    <line x1="54.65" y1="117.69" x2="63.87" y2="108.47"
          style="fill:none;stroke:#fff;stroke-linecap:round;stroke-linejoin:round;stroke-width:0px"/>
    <line x1="63.87" y1="98.44" x2="59.71" y2="94.27"
          style="fill:none;stroke:#fff;stroke-linecap:round;stroke-linejoin:round;stroke-width:0px"/>
    <polyline
            points="95.68 6.87 97.76 8.95 99.84 11.03 99.84 16.05 81.07 34.83 78.99 32.75 78.56 32.32 74.4 28.16 95.68 6.87"
            style="fill:blue;fill-rule:evenodd"/>
    <line x1="95.68" y1="6.87" x2="74.4" y2="28.16"
          style="fill:none;stroke:#fff;stroke-linecap:round;stroke-linejoin:round;stroke-width:0px"/>
    <line x1="74.4" y1="28.16" x2="78.56" y2="32.32"
          style="fill:none;stroke:#fff;stroke-linecap:round;stroke-linejoin:round;stroke-width:0px"/>
    <line x1="78.56" y1="32.32" x2="78.99" y2="32.75"
          style="fill:none;stroke:#fff;stroke-linecap:round;stroke-linejoin:round;stroke-width:0px"/>
    <line x1="78.99" y1="32.75" x2="81.07" y2="34.83"
          style="fill:none;stroke:#fff;stroke-linecap:round;stroke-linejoin:round;stroke-width:0px"/>
    <line x1="81.07" y1="34.83" x2="99.85" y2="16.05"
          style="fill:none;stroke:#fff;stroke-linecap:round;stroke-linejoin:round;stroke-width:0px"/>
    <line x1="99.85" y1="11.03" x2="97.76" y2="8.95"
          style="fill:none;stroke:#fff;stroke-linecap:round;stroke-linejoin:round;stroke-width:0px"/>
    <line x1="97.76" y1="8.95" x2="95.68" y2="6.87"
          style="fill:none;stroke:#fff;stroke-linecap:round;stroke-linejoin:round;stroke-width:0px"/>
    <polyline points="-7.37 -430.47 579.63 -430.47 579.63 153.53 -7.37 153.53 -7.37 -430.47"
              style="fill:none;fill-rule:evenodd"/>
    <line x1="69.81" y1="23.57" x2="96.41" y2="50.17"
          style="fill:none;stroke:#fff;stroke-linecap:round;stroke-linejoin:round;stroke-width:0.5017075538635254px"/>
    <line x1="69.81" y1="114.41" x2="69.81" y2="76.78"
          style="fill:none;stroke:#fff;stroke-linecap:round;stroke-linejoin:round;stroke-width:0.5017075538635254px"/>
    <line x1="43.2" y1="87.8" x2="54.69" y2="99.29"
          style="fill:none;stroke:#fff;stroke-linecap:round;stroke-linejoin:round;stroke-width:0.5017075538635254px"/>
    <line x1="43.2" y1="87.8" x2="43.2" y2="50.17"
          style="fill:none;stroke:#fff;stroke-linecap:round;stroke-linejoin:round;stroke-width:0.5017075538635254px"/>
    <line x1="69.81" y1="23.57" x2="43.2" y2="50.17"
          style="fill:none;stroke:#fff;stroke-linecap:round;stroke-linejoin:round;stroke-width:0.5017075538635254px"/>
    <line x1="81.07" y1="34.83" x2="68.03" y2="75.01"
          style="fill:none;stroke:#fff;stroke-linecap:round;stroke-linejoin:round;stroke-width:0.5017075538635254px"/>
    <line x1="69.81" y1="76.78" x2="96.41" y2="50.17"
          style="fill:none;stroke:#fff;stroke-linecap:round;stroke-linejoin:round;stroke-width:0.5017075538635254px"/>
    <line x1="69.81" y1="23.57" x2="96.41" y2="50.17"
          style="fill:none;stroke:#fff;stroke-linecap:round;stroke-linejoin:round;stroke-width:0.5017075538635254px"/>
    <line x1="68.03" y1="112.64" x2="68.03" y2="75.01"
          style="fill:none;stroke:#fff;stroke-linecap:round;stroke-linejoin:round;stroke-width:0.5017075538635254px"/>
    <line x1="43.2" y1="50.17" x2="69.81" y2="76.78"
          style="fill:none;stroke:#fff;stroke-linecap:round;stroke-linejoin:round;stroke-width:0.5017075538635254px"/>
    <line x1="83.11" y1="101.11" x2="69.81" y2="114.41"
          style="fill:none;stroke:#fff;stroke-linecap:round;stroke-linejoin:round;stroke-width:0.5017075538635254px"/>
    <line x1="96.41" y1="68.99" x2="96.41" y2="50.17"
          style="fill:none;stroke:#fff;stroke-linecap:round;stroke-linejoin:round;stroke-width:0.5017075538635254px"/>
    <line x1="83.11" y1="101.11" x2="83.11" y2="63.48"
          style="fill:none;stroke:#fff;stroke-linecap:round;stroke-linejoin:round;stroke-width:0.5017075538635254px"/>
    <line x1="83.11" y1="63.48" x2="44.6" y2="48.77"
          style="fill:none;stroke:#fff;stroke-linecap:round;stroke-linejoin:round;stroke-width:0.5017075538635254px"/>
    <line x1="63.87" y1="98.44" x2="54.65" y2="107.66"
          style="fill:none;stroke:#fff;stroke-linecap:round;stroke-linejoin:round;stroke-width:0.5017075538635254px"/>
    <line x1="59.71" y1="94.27" x2="63.87" y2="98.44"
          style="fill:none;stroke:#fff;stroke-linecap:round;stroke-linejoin:round;stroke-width:0.5017075538635254px"/>
    <line x1="50.49" y1="113.53" x2="54.65" y2="117.69"
          style="fill:none;stroke:#fff;stroke-linecap:round;stroke-linejoin:round;stroke-width:0.5017075538635254px"/>
    <line x1="54.65" y1="117.69" x2="54.65" y2="107.66"
          style="fill:none;stroke:#fff;stroke-linecap:round;stroke-linejoin:round;stroke-width:0.5017075538635254px"/>
    <line x1="63.87" y1="108.47" x2="54.65" y2="117.69"
          style="fill:none;stroke:#fff;stroke-linecap:round;stroke-linejoin:round;stroke-width:0.5017075538635254px"/>
    <line x1="50.49" y1="113.53" x2="50.49" y2="103.49"
          style="fill:none;stroke:#fff;stroke-linecap:round;stroke-linejoin:round;stroke-width:0.5017075538635254px"/>
    <line x1="50.49" y1="103.49" x2="54.65" y2="107.66"
          style="fill:none;stroke:#fff;stroke-linecap:round;stroke-linejoin:round;stroke-width:0.5017075538635254px"/>
    <line x1="59.71" y1="94.27" x2="50.49" y2="103.49"
          style="fill:none;stroke:#fff;stroke-linecap:round;stroke-linejoin:round;stroke-width:0.5017075538635254px"/>
    <line x1="63.87" y1="108.47" x2="69.81" y2="114.41"
          style="fill:none;stroke:#fff;stroke-linecap:round;stroke-linejoin:round;stroke-width:0.5017075538635254px"/>
    <line x1="47.36" y1="91.96" x2="43.2" y2="87.8"
          style="fill:none;stroke:#fff;stroke-linecap:round;stroke-linejoin:round;stroke-width:0.5017075538635254px"/>
    <line x1="24" y1="111.17" x2="26.08" y2="113.25"
          style="fill:none;stroke:#fff;stroke-linecap:round;stroke-linejoin:round;stroke-width:0.5017075538635254px"/>
    <line x1="83.11" y1="82.29" x2="96.41" y2="68.99"
          style="fill:none;stroke:#fff;stroke-linecap:round;stroke-linejoin:round;stroke-width:0.5017075538635254px"/>
    <line x1="99.85" y1="16.05" x2="81.07" y2="34.83"
          style="fill:none;stroke:#fff;stroke-linecap:round;stroke-linejoin:round;stroke-width:0.5017075538635254px"/>
    <line x1="95.68" y1="6.87" x2="74.4" y2="28.16"
          style="fill:none;stroke:#fff;stroke-linecap:round;stroke-linejoin:round;stroke-width:0.5017075538635254px"/>
    <line x1="99.85" y1="16.05" x2="99.85" y2="11.03"
          style="fill:none;stroke:#fff;stroke-linecap:round;stroke-linejoin:round;stroke-width:0.5017075538635254px"/>
    <line x1="99.85" y1="16.05" x2="81.07" y2="34.83"
          style="fill:none;stroke:#fff;stroke-linecap:round;stroke-linejoin:round;stroke-width:0.5017075538635254px"/>
    <line x1="99.85" y1="11.03" x2="78.56" y2="32.32"
          style="fill:none;stroke:#fff;stroke-linecap:round;stroke-linejoin:round;stroke-width:0.5017075538635254px"/>
    <line x1="63.87" y1="108.47" x2="63.87" y2="98.44"
          style="fill:none;stroke:#fff;stroke-linecap:round;stroke-linejoin:round;stroke-width:0.5017075538635254px"/>
    <polyline points="-7.37 -430.47 579.63 -430.47 579.63 153.53 -7.37 153.53 -7.37 -430.47"
              style="fill:none;fill-rule:evenodd"/>
</svg>