<svg id="Слой_1" data-name="Слой 1" xmlns="http://www.w3.org/2000/svg" viewBox="0 0 141.53 141.53">
    <title>17Монтажная область 1</title>
    <polyline
            points="55.25 26.32 63.72 17.85 90.51 27.7 108.83 46.02 108.83 70.98 108.83 91.96 103.65 97.14 94 106.79 90.51 110.28 72.19 128.6 72.19 92.71 71.43 92.71 65.87 92.71 58.88 92.71 58.88 105.26 53.87 110.28 46.15 102.56 37.3 93.71 35.55 91.96 35.55 46.02 55.25 26.32"
            style="fill:blue;fill-rule:evenodd"/>
    <line x1="55.25" y1="26.32" x2="35.55" y2="46.02"
          style="fill:none;stroke:#fff;stroke-linecap:round;stroke-linejoin:round;stroke-width:0px"/>
    <line x1="35.55" y1="91.96" x2="37.3" y2="93.71"
          style="fill:none;stroke:#fff;stroke-linecap:round;stroke-linejoin:round;stroke-width:0px"/>
    <line x1="37.3" y1="93.71" x2="46.15" y2="102.56"
          style="fill:none;stroke:#fff;stroke-linecap:round;stroke-linejoin:round;stroke-width:0px"/>
    <line x1="46.15" y1="102.56" x2="53.87" y2="110.28"
          style="fill:none;stroke:#fff;stroke-linecap:round;stroke-linejoin:round;stroke-width:0px"/>
    <line x1="53.87" y1="110.28" x2="58.88" y2="105.26"
          style="fill:none;stroke:#fff;stroke-linecap:round;stroke-linejoin:round;stroke-width:0px"/>
    <line x1="72.19" y1="128.6" x2="90.51" y2="110.28"
          style="fill:none;stroke:#fff;stroke-linecap:round;stroke-linejoin:round;stroke-width:0px"/>
    <line x1="90.51" y1="110.28" x2="94" y2="106.79"
          style="fill:none;stroke:#fff;stroke-linecap:round;stroke-linejoin:round;stroke-width:0px"/>
    <line x1="94" y1="106.79" x2="103.65" y2="97.14"
          style="fill:none;stroke:#fff;stroke-linecap:round;stroke-linejoin:round;stroke-width:0px"/>
    <line x1="103.65" y1="97.14" x2="108.83" y2="91.96"
          style="fill:none;stroke:#fff;stroke-linecap:round;stroke-linejoin:round;stroke-width:0px"/>
    <line x1="108.83" y1="46.02" x2="90.51" y2="27.7"
          style="fill:none;stroke:#fff;stroke-linecap:round;stroke-linejoin:round;stroke-width:0px"/>
    <line x1="90.51" y1="27.7" x2="63.72" y2="17.85"
          style="fill:none;stroke:#fff;stroke-linecap:round;stroke-linejoin:round;stroke-width:0px"/>
    <line x1="63.72" y1="17.85" x2="55.25" y2="26.32"
          style="fill:none;stroke:#fff;stroke-linecap:round;stroke-linejoin:round;stroke-width:0px"/>
    <polyline points="-431.95 -430.47 155.05 -430.47 155.05 153.53 -431.95 153.53 -431.95 -430.47"
              style="fill:none;fill-rule:evenodd"/>
    <line x1="22.35" y1="63.49" x2="22.35" y2="49.3"
          style="fill:none;stroke:#fff;stroke-linecap:round;stroke-linejoin:round;stroke-width:0.5017075538635254px"/>
    <line x1="108.83" y1="91.96" x2="108.83" y2="46.02"
          style="fill:none;stroke:#fff;stroke-linecap:round;stroke-linejoin:round;stroke-width:0.5017075538635254px"/>
    <line x1="35.55" y1="91.96" x2="72.19" y2="128.6"
          style="fill:none;stroke:#fff;stroke-linecap:round;stroke-linejoin:round;stroke-width:0.5017075538635254px"/>
    <line x1="109.95" y1="90.84" x2="72.19" y2="128.6"
          style="fill:none;stroke:#fff;stroke-linecap:round;stroke-linejoin:round;stroke-width:0.5017075538635254px"/>
    <line x1="35.55" y1="46.02" x2="72.19" y2="82.66"
          style="fill:none;stroke:#fff;stroke-linecap:round;stroke-linejoin:round;stroke-width:0.5017075538635254px"/>
    <line x1="108.83" y1="46.02" x2="72.19" y2="82.66"
          style="fill:none;stroke:#fff;stroke-linecap:round;stroke-linejoin:round;stroke-width:0.5017075538635254px"/>
    <line x1="50.6" y1="51.04" x2="72.19" y2="72.62"
          style="fill:none;stroke:#fff;stroke-linecap:round;stroke-linejoin:round;stroke-width:0.5017075538635254px"/>
    <line x1="63.72" y1="17.85" x2="90.51" y2="27.7"
          style="fill:none;stroke:#fff;stroke-linecap:round;stroke-linejoin:round;stroke-width:0.5017075538635254px"/>
    <line x1="90.51" y1="27.7" x2="108.83" y2="46.02"
          style="fill:none;stroke:#fff;stroke-linecap:round;stroke-linejoin:round;stroke-width:0.5017075538635254px"/>
    <line x1="72.19" y1="72.62" x2="72.19" y2="29.44"
          style="fill:none;stroke:#fff;stroke-linecap:round;stroke-linejoin:round;stroke-width:0.5017075538635254px"/>
    <line x1="93.78" y1="51.04" x2="72.19" y2="72.62"
          style="fill:none;stroke:#fff;stroke-linecap:round;stroke-linejoin:round;stroke-width:0.5017075538635254px"/>
    <line x1="35.55" y1="46.02" x2="63.72" y2="17.85"
          style="fill:none;stroke:#fff;stroke-linecap:round;stroke-linejoin:round;stroke-width:0.5017075538635254px"/>
    <line x1="93.78" y1="51.04" x2="72.19" y2="29.44"
          style="fill:none;stroke:#fff;stroke-linecap:round;stroke-linejoin:round;stroke-width:0.5017075538635254px"/>
    <line x1="50.6" y1="51.04" x2="72.19" y2="29.44"
          style="fill:none;stroke:#fff;stroke-linecap:round;stroke-linejoin:round;stroke-width:0.5017075538635254px"/>
    <line x1="72.19" y1="128.6" x2="72.19" y2="82.66"
          style="fill:none;stroke:#fff;stroke-linecap:round;stroke-linejoin:round;stroke-width:0.5017075538635254px"/>
    <line x1="90.51" y1="110.28" x2="90.51" y2="64.34"
          style="fill:none;stroke:#fff;stroke-linecap:round;stroke-linejoin:round;stroke-width:0.5017075538635254px"/>
    <line x1="71.43" y1="92.71" x2="53.87" y2="110.28"
          style="fill:none;stroke:#fff;stroke-linecap:round;stroke-linejoin:round;stroke-width:0.5017075538635254px"/>
    <line x1="53.87" y1="92.71" x2="72.19" y2="92.71"
          style="fill:none;stroke:#fff;stroke-linecap:round;stroke-linejoin:round;stroke-width:0.5017075538635254px"/>
    <line x1="53.87" y1="110.28" x2="53.87" y2="64.34"
          style="fill:none;stroke:#fff;stroke-linecap:round;stroke-linejoin:round;stroke-width:0.5017075538635254px"/>
    <line x1="58.88" y1="92.71" x2="58.88" y2="105.26"
          style="fill:none;stroke:#fff;stroke-linecap:round;stroke-linejoin:round;stroke-width:0.5017075538635254px"/>
    <polyline points="-431.95 -430.47 155.05 -430.47 155.05 153.53 -431.95 153.53 -431.95 -430.47"
              style="fill:none;fill-rule:evenodd"/>
</svg>