<svg id="Слой_1" data-name="Слой 1" xmlns="http://www.w3.org/2000/svg" viewBox="0 0 141.53 141.53">
    <title>13Монтажная область 1</title>
    <polyline points="61.9 100.53 61.9 29.58 71.11 20.36 79.98 29.23 79.98 100.18 70.76 109.4 61.9 100.53"
              style="fill:blue;fill-rule:evenodd"/>
    <line x1="61.89" y1="100.53" x2="70.76" y2="109.4"
          style="fill:none;stroke:#fff;stroke-linecap:round;stroke-linejoin:round;stroke-width:0px"/>
    <line x1="70.76" y1="109.4" x2="79.98" y2="100.18"
          style="fill:none;stroke:#fff;stroke-linecap:round;stroke-linejoin:round;stroke-width:0px"/>
    <line x1="79.98" y1="29.23" x2="71.11" y2="20.36"
          style="fill:none;stroke:#fff;stroke-linecap:round;stroke-linejoin:round;stroke-width:0px"/>
    <line x1="71.11" y1="20.36" x2="61.89" y2="29.58"
          style="fill:none;stroke:#fff;stroke-linecap:round;stroke-linejoin:round;stroke-width:0px"/>
    <polyline points="-431.95 -288.95 155.05 -288.95 155.05 295.05 -431.95 295.05 -431.95 -288.95"
              style="fill:none;fill-rule:evenodd"/>
    <line x1="61.89" y1="29.58" x2="70.76" y2="38.45"
          style="fill:none;stroke:#fff;stroke-linecap:round;stroke-linejoin:round;stroke-width:0.5017075538635254px"/>
    <line x1="61.89" y1="100.53" x2="61.89" y2="29.58"
          style="fill:none;stroke:#fff;stroke-linecap:round;stroke-linejoin:round;stroke-width:0.5017075538635254px"/>
    <line x1="61.89" y1="100.53" x2="70.76" y2="109.4"
          style="fill:none;stroke:#fff;stroke-linecap:round;stroke-linejoin:round;stroke-width:0.5017075538635254px"/>
    <line x1="71.11" y1="20.36" x2="61.89" y2="29.58"
          style="fill:none;stroke:#fff;stroke-linecap:round;stroke-linejoin:round;stroke-width:0.5017075538635254px"/>
    <line x1="71.11" y1="20.36" x2="79.98" y2="29.23"
          style="fill:none;stroke:#fff;stroke-linecap:round;stroke-linejoin:round;stroke-width:0.5017075538635254px"/>
    <line x1="70.76" y1="109.4" x2="70.76" y2="38.45"
          style="fill:none;stroke:#fff;stroke-linecap:round;stroke-linejoin:round;stroke-width:0.5017075538635254px"/>
    <line x1="79.98" y1="29.23" x2="70.76" y2="38.45"
          style="fill:none;stroke:#fff;stroke-linecap:round;stroke-linejoin:round;stroke-width:0.5017075538635254px"/>
    <line x1="79.98" y1="100.18" x2="79.98" y2="29.23"
          style="fill:none;stroke:#fff;stroke-linecap:round;stroke-linejoin:round;stroke-width:0.5017075538635254px"/>
    <line x1="79.98" y1="100.18" x2="70.76" y2="109.4"
          style="fill:none;stroke:#fff;stroke-linecap:round;stroke-linejoin:round;stroke-width:0.5017075538635254px"/>
    <line x1="66.5" y1="24.97" x2="75.37" y2="33.84"
          style="fill:none;stroke:#fff;stroke-linecap:round;stroke-linejoin:round;stroke-width:0.5017075538635254px"/>
    <line x1="75.37" y1="104.79" x2="75.37" y2="33.84"
          style="fill:none;stroke:#fff;stroke-linecap:round;stroke-linejoin:round;stroke-width:0.5017075538635254px"/>
    <line x1="75.55" y1="24.8" x2="66.33" y2="34.02"
          style="fill:none;stroke:#fff;stroke-linecap:round;stroke-linejoin:round;stroke-width:0.5017075538635254px"/>
    <line x1="66.33" y1="104.97" x2="66.33" y2="34.02"
          style="fill:none;stroke:#fff;stroke-linecap:round;stroke-linejoin:round;stroke-width:0.5017075538635254px"/>
    <line x1="61.89" y1="65.06" x2="70.76" y2="73.93"
          style="fill:none;stroke:#fff;stroke-linecap:round;stroke-linejoin:round;stroke-width:0.5017075538635254px"/>
    <line x1="79.98" y1="64.71" x2="70.76" y2="73.93"
          style="fill:none;stroke:#fff;stroke-linecap:round;stroke-linejoin:round;stroke-width:0.5017075538635254px"/>
    <polyline points="-431.95 -288.95 155.05 -288.95 155.05 295.05 -431.95 295.05 -431.95 -288.95"
              style="fill:none;fill-rule:evenodd"/>
</svg>