<svg class='figure' data-name="Слой 1" xmlns="http://www.w3.org/2000/svg" viewBox="0 0 141.53 141.53">
    <title>4Монтажная область 1</title>
    <polyline
            points="48.42 65.06 48.42 29.58 57.63 20.36 70.76 33.49 83.89 20.36 93.11 29.58 93.11 55.84 93.11 126.79 83.89 136.01 70.76 122.88 57.63 136.01 48.42 126.63 48.42 65.06"
            style="fill-rule:evenodd"/>
    <line x1="48.42" y1="126.63" x2="57.63" y2="136.01"
          style="fill:none;stroke:#fff;stroke-linecap:round;stroke-linejoin:round;stroke-width:0px"/>
    <line x1="57.63" y1="136.01" x2="70.76" y2="122.88"
          style="fill:none;stroke:#fff;stroke-linecap:round;stroke-linejoin:round;stroke-width:0px"/>
    <line x1="70.76" y1="122.88" x2="83.89" y2="136.01"
          style="fill:none;stroke:#fff;stroke-linecap:round;stroke-linejoin:round;stroke-width:0px"/>
    <line x1="83.89" y1="136.01" x2="93.11" y2="126.79"
          style="fill:none;stroke:#fff;stroke-linecap:round;stroke-linejoin:round;stroke-width:0px"/>
    <line x1="93.11" y1="29.58" x2="83.89" y2="20.36"
          style="fill:none;stroke:#fff;stroke-linecap:round;stroke-linejoin:round;stroke-width:0px"/>
    <line x1="83.89" y1="20.36" x2="70.76" y2="33.49"
          style="fill:none;stroke:#fff;stroke-linecap:round;stroke-linejoin:round;stroke-width:0px"/>
    <line x1="70.76" y1="33.49" x2="57.63" y2="20.36"
          style="fill:none;stroke:#fff;stroke-linecap:round;stroke-linejoin:round;stroke-width:0px"/>
    <line x1="57.63" y1="20.36" x2="48.42" y2="29.58"
          style="fill:none;stroke:#fff;stroke-linecap:round;stroke-linejoin:round;stroke-width:0px"/>
    <polyline points="-290.42 -5.89 296.58 -5.89 296.58 578.11 -290.42 578.11 -290.42 -5.89"
              style="fill:none;fill-rule:evenodd"/>
    <line x1="48.42" y1="29.58" x2="61.54" y2="42.71"
          style="fill:none;stroke:#fff;stroke-linecap:round;stroke-linejoin:round;stroke-width:0.5017075538635254px"/>
    <line x1="48.42" y1="126.79" x2="48.42" y2="29.58"
          style="fill:none;stroke:#fff;stroke-linecap:round;stroke-linejoin:round;stroke-width:0.5017075538635254px"/>
    <line x1="83.89" y1="136.01" x2="83.89" y2="65.06"
          style="fill:none;stroke:#fff;stroke-linecap:round;stroke-linejoin:round;stroke-width:0.5017075538635254px"/>
    <line x1="70.76" y1="122.88" x2="83.89" y2="136.01"
          style="fill:none;stroke:#fff;stroke-linecap:round;stroke-linejoin:round;stroke-width:0.5017075538635254px"/>
    <line x1="93.11" y1="126.79" x2="83.89" y2="136.01"
          style="fill:none;stroke:#fff;stroke-linecap:round;stroke-linejoin:round;stroke-width:0.5017075538635254px"/>
    <line x1="93.11" y1="126.79" x2="93.11" y2="29.58"
          style="fill:none;stroke:#fff;stroke-linecap:round;stroke-linejoin:round;stroke-width:0.5017075538635254px"/>
    <line x1="93.11" y1="55.84" x2="83.89" y2="65.06"
          style="fill:none;stroke:#fff;stroke-linecap:round;stroke-linejoin:round;stroke-width:0.5017075538635254px"/>
    <line x1="57.63" y1="20.36" x2="48.42" y2="29.58"
          style="fill:none;stroke:#fff;stroke-linecap:round;stroke-linejoin:round;stroke-width:0.5017075538635254px"/>
    <line x1="57.63" y1="20.36" x2="70.76" y2="33.49"
          style="fill:none;stroke:#fff;stroke-linecap:round;stroke-linejoin:round;stroke-width:0.5017075538635254px"/>
    <line x1="83.89" y1="20.36" x2="70.76" y2="33.49"
          style="fill:none;stroke:#fff;stroke-linecap:round;stroke-linejoin:round;stroke-width:0.5017075538635254px"/>
    <line x1="61.54" y1="42.71" x2="48.42" y2="55.84"
          style="fill:none;stroke:#fff;stroke-linecap:round;stroke-linejoin:round;stroke-width:0.5017075538635254px"/>
    <line x1="70.76" y1="51.93" x2="83.89" y2="65.06"
          style="fill:none;stroke:#fff;stroke-linecap:round;stroke-linejoin:round;stroke-width:0.5017075538635254px"/>
    <line x1="57.63" y1="136.01" x2="57.63" y2="65.06"
          style="fill:none;stroke:#fff;stroke-linecap:round;stroke-linejoin:round;stroke-width:0.5017075538635254px"/>
    <line x1="79.98" y1="42.71" x2="93.11" y2="55.84"
          style="fill:none;stroke:#fff;stroke-linecap:round;stroke-linejoin:round;stroke-width:0.5017075538635254px"/>
    <line x1="70.76" y1="122.88" x2="70.76" y2="51.93"
          style="fill:none;stroke:#fff;stroke-linecap:round;stroke-linejoin:round;stroke-width:0.5017075538635254px"/>
    <line x1="70.76" y1="51.93" x2="57.63" y2="65.06"
          style="fill:none;stroke:#fff;stroke-linecap:round;stroke-linejoin:round;stroke-width:0.5017075538635254px"/>
    <line x1="48.42" y1="55.84" x2="57.63" y2="65.06"
          style="fill:none;stroke:#fff;stroke-linecap:round;stroke-linejoin:round;stroke-width:0.5017075538635254px"/>
    <line x1="48.42" y1="126.79" x2="57.63" y2="136.01"
          style="fill:none;stroke:#fff;stroke-linecap:round;stroke-linejoin:round;stroke-width:0.5017075538635254px"/>
    <line x1="53.03" y1="131.32" x2="53.03" y2="60.45"
          style="fill:none;stroke:#fff;stroke-linecap:round;stroke-linejoin:round;stroke-width:0.5017075538635254px"/>
    <line x1="88.11" y1="29.55" x2="85.63" y2="32.03"
          style="fill:none;stroke:#fff;stroke-linecap:round;stroke-linejoin:round;stroke-width:0.5017075538635254px"/>
    <line x1="88.11" y1="29.55" x2="90.63" y2="32.06"
          style="fill:none;stroke:#fff;stroke-linecap:round;stroke-linejoin:round;stroke-width:0.5017075538635254px"/>
    <line x1="85.63" y1="32.03" x2="88.14" y2="34.55"
          style="fill:none;stroke:#fff;stroke-linecap:round;stroke-linejoin:round;stroke-width:0.5017075538635254px"/>
    <line x1="90.63" y1="32.06" x2="90.63" y2="44.61"
          style="fill:none;stroke:#fff;stroke-linecap:round;stroke-linejoin:round;stroke-width:0.5017075538635254px"/>
    <line x1="88.14" y1="34.55" x2="88.14" y2="47.09"
          style="fill:none;stroke:#fff;stroke-linecap:round;stroke-linejoin:round;stroke-width:0.5017075538635254px"/>
    <line x1="93.11" y1="29.58" x2="90.63" y2="32.06"
          style="fill:none;stroke:#fff;stroke-linecap:round;stroke-linejoin:round;stroke-width:0.5017075538635254px"/>
    <line x1="88.14" y1="34.55" x2="79.98" y2="42.71"
          style="fill:none;stroke:#fff;stroke-linecap:round;stroke-linejoin:round;stroke-width:0.5017075538635254px"/>
    <line x1="90.63" y1="44.61" x2="88.14" y2="47.09"
          style="fill:none;stroke:#fff;stroke-linecap:round;stroke-linejoin:round;stroke-width:0.5017075538635254px"/>
    <line x1="88.11" y1="29.55" x2="88.11" y2="34.55"
          style="fill:none;stroke:#fff;stroke-linecap:round;stroke-linejoin:round;stroke-width:0.5017075538635254px"/>
    <line x1="93.11" y1="91.31" x2="83.89" y2="100.53"
          style="fill:none;stroke:#fff;stroke-linecap:round;stroke-linejoin:round;stroke-width:0.5017075538635254px"/>
    <polyline points="-290.42 -5.89 296.58 -5.89 296.58 578.11 -290.42 578.11 -290.42 -5.89"
              style="fill:none;fill-rule:evenodd"/>
</svg>