<svg id="Слой_1" data-name="Слой 1" xmlns="http://www.w3.org/2000/svg" viewBox="0 0 141.53 141.53">
    <title>2Монтажная область 1</title>
    <polyline points="84.27 131.73 48.8 96.25 48.8 25.3 58.02 16.08 93.49 51.55 93.49 122.51 84.27 131.73"
              style="fill:blue;fill-rule:evenodd"/>
    <line x1="84.27" y1="131.73" x2="93.49" y2="122.51"
          style="fill:none;stroke:#fff;stroke-linecap:round;stroke-linejoin:round;stroke-width:0px"/>
    <line x1="93.49" y1="51.56" x2="58.02" y2="16.08"
          style="fill:none;stroke:#fff;stroke-linecap:round;stroke-linejoin:round;stroke-width:0px"/>
    <line x1="58.02" y1="16.08" x2="48.8" y2="25.3"
          style="fill:none;stroke:#fff;stroke-linecap:round;stroke-linejoin:round;stroke-width:0px"/>
    <line x1="48.8" y1="96.25" x2="84.27" y2="131.73"
          style="fill:none;stroke:#fff;stroke-linecap:round;stroke-linejoin:round;stroke-width:0px"/>
    <polyline points="-7.37 -5.89 579.63 -5.89 579.63 578.11 -7.37 578.11 -7.37 -5.89"
              style="fill:none;fill-rule:evenodd"/>
    <line x1="48.8" y1="25.3" x2="84.27" y2="60.77"
          style="fill:none;stroke:#fff;stroke-linecap:round;stroke-linejoin:round;stroke-width:0.5017075538635254px"/>
    <line x1="48.8" y1="96.25" x2="48.8" y2="25.3"
          style="fill:none;stroke:#fff;stroke-linecap:round;stroke-linejoin:round;stroke-width:0.5017075538635254px"/>
    <line x1="84.27" y1="131.73" x2="84.27" y2="60.77"
          style="fill:none;stroke:#fff;stroke-linecap:round;stroke-linejoin:round;stroke-width:0.5017075538635254px"/>
    <line x1="48.8" y1="96.25" x2="84.27" y2="131.73"
          style="fill:none;stroke:#fff;stroke-linecap:round;stroke-linejoin:round;stroke-width:0.5017075538635254px"/>
    <line x1="93.49" y1="122.51" x2="84.27" y2="131.73"
          style="fill:none;stroke:#fff;stroke-linecap:round;stroke-linejoin:round;stroke-width:0.5017075538635254px"/>
    <line x1="93.49" y1="122.51" x2="93.49" y2="51.56"
          style="fill:none;stroke:#fff;stroke-linecap:round;stroke-linejoin:round;stroke-width:0.5017075538635254px"/>
    <line x1="93.49" y1="51.56" x2="84.27" y2="60.77"
          style="fill:none;stroke:#fff;stroke-linecap:round;stroke-linejoin:round;stroke-width:0.5017075538635254px"/>
    <line x1="58.02" y1="16.08" x2="48.8" y2="25.3"
          style="fill:none;stroke:#fff;stroke-linecap:round;stroke-linejoin:round;stroke-width:0.5017075538635254px"/>
    <line x1="58.02" y1="16.08" x2="93.49" y2="51.56"
          style="fill:none;stroke:#fff;stroke-linecap:round;stroke-linejoin:round;stroke-width:0.5017075538635254px"/>
    <line x1="66.54" y1="78.51" x2="75.4" y2="87.38"
          style="fill:none;stroke:#fff;stroke-linecap:round;stroke-linejoin:round;stroke-width:0.5017075538635254px"/>
    <line x1="66.54" y1="103.6" x2="75.4" y2="112.47"
          style="fill:none;stroke:#fff;stroke-linecap:round;stroke-linejoin:round;stroke-width:0.5017075538635254px"/>
    <line x1="66.54" y1="78.51" x2="66.54" y2="103.6"
          style="fill:none;stroke:#fff;stroke-linecap:round;stroke-linejoin:round;stroke-width:0.5017075538635254px"/>
    <line x1="75.4" y1="87.38" x2="75.4" y2="112.47"
          style="fill:none;stroke:#fff;stroke-linecap:round;stroke-linejoin:round;stroke-width:0.5017075538635254px"/>
    <line x1="75.4" y1="94.73" x2="66.54" y2="103.6"
          style="fill:none;stroke:#fff;stroke-linecap:round;stroke-linejoin:round;stroke-width:0.5017075538635254px"/>
    <line x1="57.67" y1="105.12" x2="57.67" y2="34.17"
          style="fill:none;stroke:#fff;stroke-linecap:round;stroke-linejoin:round;stroke-width:0.5017075538635254px"/>
    <line x1="66.89" y1="24.95" x2="57.67" y2="34.17"
          style="fill:none;stroke:#fff;stroke-linecap:round;stroke-linejoin:round;stroke-width:0.5017075538635254px"/>
    <line x1="82.5" y1="129.95" x2="82.5" y2="59"
          style="fill:none;stroke:#fff;stroke-linecap:round;stroke-linejoin:round;stroke-width:0.5017075538635254px"/>
    <line x1="91.72" y1="49.78" x2="82.5" y2="59"
          style="fill:none;stroke:#fff;stroke-linecap:round;stroke-linejoin:round;stroke-width:0.5017075538635254px"/>
    <polyline points="-7.37 -5.89 579.63 -5.89 579.63 578.11 -7.37 578.11 -7.37 -5.89"
              style="fill:none;fill-rule:evenodd"/>
</svg>