<svg id="Слой_1" data-name="Слой 1" xmlns="http://www.w3.org/2000/svg" xmlns:xlink="http://www.w3.org/1999/xlink"
     viewBox="0 0 141.53 141.53">
    <defs>
        <clipPath id="clip-path">
            <polyline points="-290.43 -288.95 296.57 -288.95 296.57 295.05 -290.43 295.05 -290.43 -288.95"
                      style="fill:none;clip-rule:evenodd"/>
        </clipPath>
    </defs>
    <title>12Монтажная область 1</title>
    <polyline
            points="45.63 87.04 66.85 65.81 80.49 52.18 62.35 34.04 62.35 17.55 66.09 14.46 70.34 12.13 74.96 10.64 79.77 10.04 84.61 10.37 89.3 11.59 93.68 13.68 97.58 16.56 100.87 20.12 103.44 24.23 105.19 28.76 106.05 33.53 106.05 70.82 105.28 75.25 103.75 79.47 101.51 83.36 98.63 86.81 84.97 100.42 78.17 107.19 69.1 98.13 60.41 106.82 61.27 107.67 61.27 124.04 59.35 125.95 57.65 127.65 39.58 109.52 39.58 93.08 45.63 87.04"
            style="fill:blue;fill-rule:evenodd"/>
    <line x1="45.63" y1="87.04" x2="39.58" y2="93.08"
          style="fill:none;stroke:#fff;stroke-linecap:round;stroke-linejoin:round;stroke-width:0px"/>
    <line x1="39.58" y1="109.52" x2="57.65" y2="127.65"
          style="fill:none;stroke:#fff;stroke-linecap:round;stroke-linejoin:round;stroke-width:0px"/>
    <line x1="57.65" y1="127.65" x2="59.35" y2="125.95"
          style="fill:none;stroke:#fff;stroke-linecap:round;stroke-linejoin:round;stroke-width:0px"/>
    <line x1="59.35" y1="125.95" x2="61.27" y2="124.04"
          style="fill:none;stroke:#fff;stroke-linecap:round;stroke-linejoin:round;stroke-width:0px"/>
    <line x1="61.27" y1="107.67" x2="60.41" y2="106.82"
          style="fill:none;stroke:#fff;stroke-linecap:round;stroke-linejoin:round;stroke-width:0px"/>
    <line x1="60.41" y1="106.82" x2="69.1" y2="98.12"
          style="fill:none;stroke:#fff;stroke-linecap:round;stroke-linejoin:round;stroke-width:0px"/>
    <line x1="69.1" y1="98.12" x2="78.17" y2="107.19"
          style="fill:none;stroke:#fff;stroke-linecap:round;stroke-linejoin:round;stroke-width:0px"/>
    <line x1="78.17" y1="107.19" x2="84.97" y2="100.42"
          style="fill:none;stroke:#fff;stroke-linecap:round;stroke-linejoin:round;stroke-width:0px"/>
    <line x1="84.97" y1="100.42" x2="98.63" y2="86.81"
          style="fill:none;stroke:#fff;stroke-linecap:round;stroke-linejoin:round;stroke-width:0px"/>
    <g style="clip-path:url(#clip-path)">
        <path d="M106,70.82a25.65,25.65,0,0,1-7.42,16"
              style="fill:none;stroke:#fff;stroke-linecap:round;stroke-linejoin:round;stroke-width:0px"/>
    </g>
    <g style="clip-path:url(#clip-path)">
        <path d="M62.35,17.55a25.65,25.65,0,0,1,43.7,16"
              style="fill:none;stroke:#fff;stroke-linecap:round;stroke-linejoin:round;stroke-width:0px"/>
    </g>
    <line x1="62.35" y1="34.04" x2="80.49" y2="52.18"
          style="fill:none;stroke:#fff;stroke-linecap:round;stroke-linejoin:round;stroke-width:0px"/>
    <line x1="80.49" y1="52.18" x2="66.85" y2="65.81"
          style="fill:none;stroke:#fff;stroke-linecap:round;stroke-linejoin:round;stroke-width:0px"/>
    <line x1="66.85" y1="65.81" x2="45.63" y2="87.04"
          style="fill:none;stroke:#fff;stroke-linecap:round;stroke-linejoin:round;stroke-width:0px"/>
    <polyline points="-290.43 -288.95 296.57 -288.95 296.57 295.05 -290.43 295.05 -290.43 -288.95"
              style="fill:none;fill-rule:evenodd"/>
    <g style="clip-path:url(#clip-path)">
        <path d="M106,66.52c.06.71.09,1.43.09,2.15a25.65,25.65,0,0,1-7.51,18.14"
              style="fill:none;stroke:#fff;stroke-linecap:round;stroke-linejoin:round;stroke-width:0.5017075538635254px"/>
    </g>
    <g style="clip-path:url(#clip-path)">
        <path d="M62.35,17.55A25.65,25.65,0,0,1,98.63,53.82"
              style="fill:none;stroke:#fff;stroke-linecap:round;stroke-linejoin:round;stroke-width:0.7086614370346069px"/>
    </g>
    <g style="clip-path:url(#clip-path)">
        <path d="M65.9,21.09A20.63,20.63,0,0,1,95.08,50.27"
              style="fill:none;stroke:#fff;stroke-linecap:round;stroke-linejoin:round;stroke-width:0.5017075538635254px"/>
    </g>
    <g style="clip-path:url(#clip-path)">
        <path d="M65.9,32.07a20.63,20.63,0,0,1,34.48,9.1"
              style="fill:none;stroke:#fff;stroke-linecap:round;stroke-linejoin:round;stroke-width:0.5017075538635254px"/>
    </g>
    <line x1="39.64" y1="93.14" x2="80.49" y2="52.29"
          style="fill:none;stroke:#fff;stroke-linecap:round;stroke-linejoin:round;stroke-width:0.5017075538635254px"/>
    <line x1="106.14" y1="70.82" x2="106.14" y2="35.68"
          style="fill:none;stroke:#fff;stroke-linecap:round;stroke-linejoin:round;stroke-width:0.5017075538635254px"/>
    <line x1="98.63" y1="70.31" x2="98.63" y2="53.82"
          style="fill:none;stroke:#fff;stroke-linecap:round;stroke-linejoin:round;stroke-width:0.5017075538635254px"/>
    <line x1="80.49" y1="52.18" x2="62.35" y2="34.04"
          style="fill:none;stroke:#fff;stroke-linecap:round;stroke-linejoin:round;stroke-width:0.5017075538635254px"/>
    <line x1="62.35" y1="34.04" x2="62.35" y2="17.55"
          style="fill:none;stroke:#fff;stroke-linecap:round;stroke-linejoin:round;stroke-width:0.5017075538635254px"/>
    <line x1="57.72" y1="127.72" x2="61.27" y2="124.17"
          style="fill:none;stroke:#fff;stroke-linecap:round;stroke-linejoin:round;stroke-width:0.5017075538635254px"/>
    <line x1="57.72" y1="129.54" x2="57.72" y2="111.22"
          style="fill:none;stroke:#fff;stroke-linecap:round;stroke-linejoin:round;stroke-width:0.5017075538635254px"/>
    <line x1="78.17" y1="90.77" x2="98.63" y2="70.31"
          style="fill:none;stroke:#fff;stroke-linecap:round;stroke-linejoin:round;stroke-width:0.5017075538635254px"/>
    <line x1="39.58" y1="109.52" x2="39.58" y2="93.08"
          style="fill:none;stroke:#fff;stroke-linecap:round;stroke-linejoin:round;stroke-width:0.5017075538635254px"/>
    <line x1="57.72" y1="111.22" x2="39.58" y2="93.08"
          style="fill:none;stroke:#fff;stroke-linecap:round;stroke-linejoin:round;stroke-width:0.5017075538635254px"/>
    <line x1="57.72" y1="127.72" x2="39.58" y2="109.58"
          style="fill:none;stroke:#fff;stroke-linecap:round;stroke-linejoin:round;stroke-width:0.5017075538635254px"/>
    <line x1="98.63" y1="70.31" x2="80.49" y2="52.18"
          style="fill:none;stroke:#fff;stroke-linecap:round;stroke-linejoin:round;stroke-width:0.5017075538635254px"/>
    <line x1="48.65" y1="102.15" x2="89.56" y2="61.25"
          style="fill:none;stroke:#fff;stroke-linecap:round;stroke-linejoin:round;stroke-width:0.5017075538635254px"/>
    <line x1="69.1" y1="81.7" x2="78.17" y2="90.77"
          style="fill:none;stroke:#fff;stroke-linecap:round;stroke-linejoin:round;stroke-width:0.5017075538635254px"/>
    <line x1="78.17" y1="107.19" x2="78.17" y2="90.77"
          style="fill:none;stroke:#fff;stroke-linecap:round;stroke-linejoin:round;stroke-width:0.5017075538635254px"/>
    <line x1="61.27" y1="107.67" x2="52.2" y2="98.61"
          style="fill:none;stroke:#fff;stroke-linecap:round;stroke-linejoin:round;stroke-width:0.5017075538635254px"/>
    <line x1="57.72" y1="111.22" x2="61.27" y2="107.67"
          style="fill:none;stroke:#fff;stroke-linecap:round;stroke-linejoin:round;stroke-width:0.5017075538635254px"/>
    <line x1="61.27" y1="125.99" x2="61.27" y2="107.67"
          style="fill:none;stroke:#fff;stroke-linecap:round;stroke-linejoin:round;stroke-width:0.5017075538635254px"/>
    <line x1="78.17" y1="107.19" x2="98.59" y2="86.77"
          style="fill:none;stroke:#fff;stroke-linecap:round;stroke-linejoin:round;stroke-width:0.5017075538635254px"/>
    <line x1="60.41" y1="106.82" x2="69.1" y2="98.12"
          style="fill:none;stroke:#fff;stroke-linecap:round;stroke-linejoin:round;stroke-width:0.5017075538635254px"/>
    <line x1="69.1" y1="98.12" x2="69.1" y2="81.7"
          style="fill:none;stroke:#fff;stroke-linecap:round;stroke-linejoin:round;stroke-width:0.5017075538635254px"/>
    <line x1="69.1" y1="98.12" x2="78.17" y2="107.19"
          style="fill:none;stroke:#fff;stroke-linecap:round;stroke-linejoin:round;stroke-width:0.5017075538635254px"/>
    <line x1="95.08" y1="73.86" x2="76.94" y2="55.72"
          style="fill:none;stroke:#fff;stroke-linecap:round;stroke-linejoin:round;stroke-width:0.5017075538635254px"/>
    <line x1="65.9" y1="32.07" x2="65.9" y2="21.09"
          style="fill:none;stroke:#fff;stroke-linecap:round;stroke-linejoin:round;stroke-width:0.5017075538635254px"/>
    <line x1="98.63" y1="53.82" x2="95.08" y2="50.27"
          style="fill:none;stroke:#fff;stroke-linecap:round;stroke-linejoin:round;stroke-width:0.5017075538635254px"/>
    <line x1="65.9" y1="21.09" x2="62.35" y2="17.55"
          style="fill:none;stroke:#fff;stroke-linecap:round;stroke-linejoin:round;stroke-width:0.5017075538635254px"/>
    <line x1="95.08" y1="61.25" x2="65.9" y2="32.07"
          style="fill:none;stroke:#fff;stroke-linecap:round;stroke-linejoin:round;stroke-width:0.5017075538635254px"/>
    <line x1="95.08" y1="61.25" x2="95.08" y2="50.27"
          style="fill:none;stroke:#fff;stroke-linecap:round;stroke-linejoin:round;stroke-width:0.5017075538635254px"/>
    <polyline points="-290.43 -288.95 296.57 -288.95 296.57 295.05 -290.43 295.05 -290.43 -288.95"
              style="fill:none;fill-rule:evenodd"/>
</svg>