<svg id="Слой_1" data-name="Слой 1" xmlns="http://www.w3.org/2000/svg" xmlns:xlink="http://www.w3.org/1999/xlink"
     viewBox="0 0 141.53 141.53">
    <defs>
        <clipPath id="clip-path">
            <polyline points="-148.9 -5.89 438.1 -5.89 438.1 578.11 -148.9 578.11 -148.9 -5.89"
                      style="fill:none;clip-rule:evenodd"/>
        </clipPath>
    </defs>
    <title>3Монтажная область 1</title>
    <polyline
            points="43.55 20.36 51.09 12.82 59.96 21.69 76.72 4.92 103.33 31.53 103.33 65.06 103.33 72.59 103.33 102.48 69.81 136.01 34.33 100.53 34.33 29.58 43.55 20.36"
            style="fill:blue;fill-rule:evenodd"/>
    <line x1="43.55" y1="20.36" x2="34.33" y2="29.58"
          style="fill:none;stroke:#fff;stroke-linecap:round;stroke-linejoin:round;stroke-width:0px"/>
    <line x1="34.33" y1="100.53" x2="69.81" y2="136.01"
          style="fill:none;stroke:#fff;stroke-linecap:round;stroke-linejoin:round;stroke-width:0px"/>
    <line x1="69.81" y1="136.01" x2="103.33" y2="102.48"
          style="fill:none;stroke:#fff;stroke-linecap:round;stroke-linejoin:round;stroke-width:0px"/>
    <line x1="103.33" y1="31.53" x2="76.72" y2="4.93"
          style="fill:none;stroke:#fff;stroke-linecap:round;stroke-linejoin:round;stroke-width:0px"/>
    <line x1="76.72" y1="4.93" x2="59.96" y2="21.69"
          style="fill:none;stroke:#fff;stroke-linecap:round;stroke-linejoin:round;stroke-width:0px"/>
    <line x1="59.96" y1="21.69" x2="51.09" y2="12.82"
          style="fill:none;stroke:#fff;stroke-linecap:round;stroke-linejoin:round;stroke-width:0px"/>
    <line x1="51.09" y1="12.82" x2="43.55" y2="20.36"
          style="fill:none;stroke:#fff;stroke-linecap:round;stroke-linejoin:round;stroke-width:0px"/>
    <g style="clip-path:url(#clip-path)">
        <path d="M88.28,31.53a7.53,7.53,0,1,0-7.53,7.53,7.53,7.53,0,0,0,7.53-7.53"
              style="fill:none;stroke:#fff;stroke-linecap:round;stroke-linejoin:round;stroke-width:0.5017075538635254px"/>
    </g>
    <g style="clip-path:url(#clip-path)">
        <path d="M75.9,37.28a7.52,7.52,0,0,1,9.71,0"
              style="fill:none;stroke:#fff;stroke-linecap:round;stroke-linejoin:round;stroke-width:0.5017075538635254px"/>
    </g>
    <polyline points="-148.9 -5.89 438.1 -5.89 438.1 578.11 -148.9 578.11 -148.9 -5.89"
              style="fill:none;fill-rule:evenodd"/>
    <line x1="34.33" y1="29.58" x2="69.81" y2="65.06"
          style="fill:none;stroke:#fff;stroke-linecap:round;stroke-linejoin:round;stroke-width:0.5017075538635254px"/>
    <line x1="34.33" y1="100.53" x2="34.33" y2="29.58"
          style="fill:none;stroke:#fff;stroke-linecap:round;stroke-linejoin:round;stroke-width:0.5017075538635254px"/>
    <line x1="69.81" y1="136.01" x2="69.81" y2="65.06"
          style="fill:none;stroke:#fff;stroke-linecap:round;stroke-linejoin:round;stroke-width:0.5017075538635254px"/>
    <line x1="34.33" y1="100.53" x2="69.81" y2="136.01"
          style="fill:none;stroke:#fff;stroke-linecap:round;stroke-linejoin:round;stroke-width:0.5017075538635254px"/>
    <line x1="104.17" y1="101.65" x2="69.81" y2="136.01"
          style="fill:none;stroke:#fff;stroke-linecap:round;stroke-linejoin:round;stroke-width:0.5017075538635254px"/>
    <line x1="43.2" y1="109.4" x2="43.2" y2="38.45"
          style="fill:none;stroke:#fff;stroke-linecap:round;stroke-linejoin:round;stroke-width:0.5017075538635254px"/>
    <line x1="76.72" y1="4.93" x2="43.2" y2="38.45"
          style="fill:none;stroke:#fff;stroke-linecap:round;stroke-linejoin:round;stroke-width:0.5017075538635254px"/>
    <line x1="101.56" y1="29.76" x2="68.03" y2="63.28"
          style="fill:none;stroke:#fff;stroke-linecap:round;stroke-linejoin:round;stroke-width:0.5017075538635254px"/>
    <line x1="69.81" y1="65.06" x2="105.28" y2="29.58"
          style="fill:none;stroke:#fff;stroke-linecap:round;stroke-linejoin:round;stroke-width:0.5017075538635254px"/>
    <line x1="76.72" y1="4.93" x2="103.33" y2="31.53"
          style="fill:none;stroke:#fff;stroke-linecap:round;stroke-linejoin:round;stroke-width:0.5017075538635254px"/>
    <line x1="103.33" y1="102.48" x2="103.33" y2="31.53"
          style="fill:none;stroke:#fff;stroke-linecap:round;stroke-linejoin:round;stroke-width:0.5017075538635254px"/>
    <line x1="78.67" y1="73.76" x2="78.67" y2="86.3"
          style="fill:none;stroke:#fff;stroke-linecap:round;stroke-linejoin:round;stroke-width:0.5017075538635254px"/>
    <line x1="93.72" y1="66.23" x2="78.67" y2="81.27"
          style="fill:none;stroke:#fff;stroke-linecap:round;stroke-linejoin:round;stroke-width:0.5017075538635254px"/>
    <line x1="96.24" y1="68.74" x2="78.67" y2="86.3"
          style="fill:none;stroke:#fff;stroke-linecap:round;stroke-linejoin:round;stroke-width:0.5017075538635254px"/>
    <line x1="96.24" y1="56.2" x2="96.24" y2="68.74"
          style="fill:none;stroke:#fff;stroke-linecap:round;stroke-linejoin:round;stroke-width:0.5017075538635254px"/>
    <line x1="96.24" y1="56.2" x2="78.67" y2="73.76"
          style="fill:none;stroke:#fff;stroke-linecap:round;stroke-linejoin:round;stroke-width:0.5017075538635254px"/>
    <line x1="93.72" y1="66.23" x2="96.24" y2="68.74"
          style="fill:none;stroke:#fff;stroke-linecap:round;stroke-linejoin:round;stroke-width:0.5017075538635254px"/>
    <line x1="93.72" y1="58.72" x2="93.72" y2="66.23"
          style="fill:none;stroke:#fff;stroke-linecap:round;stroke-linejoin:round;stroke-width:0.5017075538635254px"/>
    <line x1="52.07" y1="118.27" x2="52.07" y2="47.32"
          style="fill:none;stroke:#fff;stroke-linecap:round;stroke-linejoin:round;stroke-width:0.5017075538635254px"/>
    <line x1="60.94" y1="127.14" x2="60.94" y2="56.19"
          style="fill:none;stroke:#fff;stroke-linecap:round;stroke-linejoin:round;stroke-width:0.5017075538635254px"/>
    <line x1="68.03" y1="134.23" x2="68.03" y2="63.28"
          style="fill:none;stroke:#fff;stroke-linecap:round;stroke-linejoin:round;stroke-width:0.5017075538635254px"/>
    <polyline points="-148.9 -5.89 438.1 -5.89 438.1 578.11 -148.9 578.11 -148.9 -5.89"
              style="fill:none;fill-rule:evenodd"/>
</svg>