<svg class='figure figure--circle' data-name="Слой 1" xmlns="http://www.w3.org/2000/svg" xmlns:xlink="http://www.w3.org/1999/xlink"
     viewBox="0 0 141.53 141.53">
    <defs>
        <clipPath id="clip-path">
            <polyline points="-148.9 -147.42 438.1 -147.42 438.1 436.58 -148.9 436.58 -148.9 -147.42"
                      style="fill:none;clip-rule:evenodd"/>
        </clipPath>
    </defs>
    <title>7Монтажная область 1</title>
    <polyline
            points="60.73 53.24 60.73 53.24 61.16 50.32 62.43 47.65 64.42 45.46 66.96 43.95 69.83 43.25 72.78 43.41 75.56 44.43 77.92 46.21 79.66 48.6 80.62 51.39 80.62 53.24 80.8 53.24 80.8 78.33 80.39 81.15 79.2 83.75 77.33 85.91 74.93 87.45 72.19 88.26 69.33 88.26 66.6 87.45 64.19 85.91 62.32 83.75 61.14 81.15 60.73 78.33 60.73 53.24"
            style="fill-rule:evenodd"/>
    <g style="clip-path:url(#clip-path)">
        <path d="M80.8,78.33a10,10,0,0,1-20.07,0"
              style="fill:none;stroke:#fff;stroke-linecap:round;stroke-linejoin:round;stroke-width:0px"/>
    </g>
    <g style="clip-path:url(#clip-path)">
        <path d="M60.73,53.24a10,10,0,0,1,19.9-1.85"
              style="fill:none;stroke:#fff;stroke-linecap:round;stroke-linejoin:round;stroke-width:0px"/>
    </g>
    <polyline points="-148.9 -147.42 438.1 -147.42 438.1 436.58 -148.9 436.58 -148.9 -147.42"
              style="fill:none;fill-rule:evenodd"/>
    <g style="clip-path:url(#clip-path)">
        <path d="M80.8,53.24a10,10,0,1,0-10,10,10,10,0,0,0,10-10"
              style="fill:none;stroke:#fff;stroke-linecap:round;stroke-linejoin:round;stroke-width:0.5017075538635254px"/>
    </g>
    <g style="clip-path:url(#clip-path)">
        <path d="M80.8,78.33a10,10,0,0,1-20.07,0"
              style="fill:none;stroke:#fff;stroke-linecap:round;stroke-linejoin:round;stroke-width:0.5017075538635254px"/>
    </g>
    <line x1="80.8" y1="78.32" x2="80.8" y2="53.24"
          style="fill:none;stroke:#fff;stroke-linecap:round;stroke-linejoin:round;stroke-width:0.5017075538635254px"/>
    <line x1="60.73" y1="78.32" x2="60.73" y2="53.24"
          style="fill:none;stroke:#fff;stroke-linecap:round;stroke-linejoin:round;stroke-width:0.5017075538635254px"/>
    <line x1="60.73" y1="78.32" x2="60.73" y2="53.24"
          style="fill:none;stroke:#fff;stroke-linecap:round;stroke-linejoin:round;stroke-width:0.5017075538635254px"/>
    <polyline points="-148.9 -147.42 438.1 -147.42 438.1 436.58 -148.9 436.58 -148.9 -147.42"
              style="fill:none;fill-rule:evenodd"/>
</svg>