<svg class='figure' data-name="Слой 1" xmlns="http://www.w3.org/2000/svg" viewBox="0 0 141.53 141.53">
    <title>16Монтажная область 1</title>
    <polyline
            points="49.57 73.46 49.57 20.12 54.24 15.38 63.03 24.33 77.08 10.01 77.26 10.19 67.76 19.68 76.52 28.44 76.52 41.2 76.52 49.76 76.52 81.98 76.52 88.99 92.49 104.95 83.27 114.17 83.27 124.2 67.31 108.24 49.57 90.5 49.57 73.46"
            style="fill-rule:evenodd"/>
    <line x1="49.57" y1="90.5" x2="67.31" y2="108.24"
          style="fill:none;stroke:#fff;stroke-linecap:round;stroke-linejoin:round;stroke-width:0px"/>
    <line x1="67.31" y1="108.24" x2="83.27" y2="124.2"
          style="fill:none;stroke:#fff;stroke-linecap:round;stroke-linejoin:round;stroke-width:0px"/>
    <line x1="83.27" y1="114.17" x2="92.49" y2="104.95"
          style="fill:none;stroke:#fff;stroke-linecap:round;stroke-linejoin:round;stroke-width:0px"/>
    <line x1="92.49" y1="104.95" x2="76.52" y2="88.99"
          style="fill:none;stroke:#fff;stroke-linecap:round;stroke-linejoin:round;stroke-width:0px"/>
    <line x1="76.52" y1="28.44" x2="67.76" y2="19.68"
          style="fill:none;stroke:#fff;stroke-linecap:round;stroke-linejoin:round;stroke-width:0px"/>
    <line x1="67.76" y1="19.68" x2="77.26" y2="10.19"
          style="fill:none;stroke:#fff;stroke-linecap:round;stroke-linejoin:round;stroke-width:0px"/>
    <line x1="77.26" y1="10.19" x2="77.08" y2="10.01"
          style="fill:none;stroke:#fff;stroke-linecap:round;stroke-linejoin:round;stroke-width:0px"/>
    <line x1="77.08" y1="10.01" x2="63.03" y2="24.33"
          style="fill:none;stroke:#fff;stroke-linecap:round;stroke-linejoin:round;stroke-width:0px"/>
    <line x1="63.03" y1="24.33" x2="54.24" y2="15.38"
          style="fill:none;stroke:#fff;stroke-linecap:round;stroke-linejoin:round;stroke-width:0px"/>
    <line x1="54.24" y1="15.38" x2="49.57" y2="20.12"
          style="fill:none;stroke:#fff;stroke-linecap:round;stroke-linejoin:round;stroke-width:0px"/>
    <polyline points="83.27 124.2 83.27 53.25 92.49 44.03 94.26 45.81 94.26 74.28 94.26 116.76 85.04 125.98 83.27 124.2"
              style="fill-rule:evenodd"/>
    <line x1="83.27" y1="124.2" x2="85.04" y2="125.98"
          style="fill:none;stroke:#fff;stroke-linecap:round;stroke-linejoin:round;stroke-width:0px"/>
    <line x1="85.04" y1="125.98" x2="94.26" y2="116.76"
          style="fill:none;stroke:#fff;stroke-linecap:round;stroke-linejoin:round;stroke-width:0px"/>
    <line x1="94.26" y1="45.81" x2="92.49" y2="44.03"
          style="fill:none;stroke:#fff;stroke-linecap:round;stroke-linejoin:round;stroke-width:0px"/>
    <line x1="92.49" y1="44.03" x2="83.27" y2="53.25"
          style="fill:none;stroke:#fff;stroke-linecap:round;stroke-linejoin:round;stroke-width:0px"/>
    <polyline points="-290.43 -430.47 296.57 -430.47 296.57 153.53 -290.43 153.53 -290.43 -430.47"
              style="fill:none;fill-rule:evenodd"/>
    <line x1="85.04" y1="125.98" x2="85.04" y2="55.03"
          style="fill:none;stroke:#fff;stroke-linecap:round;stroke-linejoin:round;stroke-width:0.5017075538635254px"/>
    <line x1="83.2" y1="124.14" x2="85.04" y2="125.98"
          style="fill:none;stroke:#fff;stroke-linecap:round;stroke-linejoin:round;stroke-width:0.5017075538635254px"/>
    <line x1="94.26" y1="116.76" x2="85.04" y2="125.98"
          style="fill:none;stroke:#fff;stroke-linecap:round;stroke-linejoin:round;stroke-width:0.5017075538635254px"/>
    <line x1="94.26" y1="116.76" x2="94.26" y2="45.81"
          style="fill:none;stroke:#fff;stroke-linecap:round;stroke-linejoin:round;stroke-width:0.5017075538635254px"/>
    <line x1="94.26" y1="45.81" x2="85.04" y2="55.03"
          style="fill:none;stroke:#fff;stroke-linecap:round;stroke-linejoin:round;stroke-width:0.5017075538635254px"/>
    <line x1="67.31" y1="108.24" x2="67.31" y2="98.21"
          style="fill:none;stroke:#fff;stroke-linecap:round;stroke-linejoin:round;stroke-width:0.5017075538635254px"/>
    <line x1="67.31" y1="98.21" x2="67.31" y2="37.66"
          style="fill:none;stroke:#fff;stroke-linecap:round;stroke-linejoin:round;stroke-width:0.5017075538635254px"/>
    <line x1="83.27" y1="124.2" x2="83.27" y2="53.25"
          style="fill:none;stroke:#fff;stroke-linecap:round;stroke-linejoin:round;stroke-width:0.5017075538635254px"/>
    <line x1="92.49" y1="44.03" x2="83.27" y2="53.25"
          style="fill:none;stroke:#fff;stroke-linecap:round;stroke-linejoin:round;stroke-width:0.5017075538635254px"/>
    <line x1="67.76" y1="19.68" x2="76.52" y2="28.44"
          style="fill:none;stroke:#fff;stroke-linecap:round;stroke-linejoin:round;stroke-width:0.5017075538635254px"/>
    <line x1="54.18" y1="15.32" x2="49.57" y2="19.92"
          style="fill:none;stroke:#fff;stroke-linecap:round;stroke-linejoin:round;stroke-width:0.5017075538635254px"/>
    <line x1="49.57" y1="90.5" x2="49.57" y2="19.77"
          style="fill:none;stroke:#fff;stroke-linecap:round;stroke-linejoin:round;stroke-width:0.5017075538635254px"/>
    <line x1="86.11" y1="18.86" x2="67.31" y2="37.66"
          style="fill:none;stroke:#fff;stroke-linecap:round;stroke-linejoin:round;stroke-width:0.5017075538635254px"/>
    <line x1="76.52" y1="88.99" x2="67.31" y2="98.21"
          style="fill:none;stroke:#fff;stroke-linecap:round;stroke-linejoin:round;stroke-width:0.5017075538635254px"/>
    <line x1="76.52" y1="88.99" x2="76.52" y2="28.44"
          style="fill:none;stroke:#fff;stroke-linecap:round;stroke-linejoin:round;stroke-width:0.5017075538635254px"/>
    <line x1="49.57" y1="90.5" x2="83.27" y2="124.2"
          style="fill:none;stroke:#fff;stroke-linecap:round;stroke-linejoin:round;stroke-width:0.5017075538635254px"/>
    <line x1="83.27" y1="53.25" x2="85.04" y2="55.03"
          style="fill:none;stroke:#fff;stroke-linecap:round;stroke-linejoin:round;stroke-width:0.5017075538635254px"/>
    <line x1="83.27" y1="63.29" x2="85.04" y2="65.06"
          style="fill:none;stroke:#fff;stroke-linecap:round;stroke-linejoin:round;stroke-width:0.5017075538635254px"/>
    <line x1="110.45" y1="72.03" x2="101.23" y2="81.25"
          style="fill:none;stroke:#fff;stroke-linecap:round;stroke-linejoin:round;stroke-width:0.5017075538635254px"/>
    <line x1="54.18" y1="15.32" x2="71.92" y2="33.05"
          style="fill:none;stroke:#fff;stroke-linecap:round;stroke-linejoin:round;stroke-width:0.5017075538635254px"/>
    <line x1="110.45" y1="72.03" x2="110.45" y2="61.99"
          style="fill:none;stroke:#fff;stroke-linecap:round;stroke-linejoin:round;stroke-width:0.5017075538635254px"/>
    <line x1="49.66" y1="20.02" x2="67.31" y2="37.66"
          style="fill:none;stroke:#fff;stroke-linecap:round;stroke-linejoin:round;stroke-width:0.5017075538635254px"/>
    <line x1="77.22" y1="10.14" x2="63.03" y2="24.33"
          style="fill:none;stroke:#fff;stroke-linecap:round;stroke-linejoin:round;stroke-width:0.5017075538635254px"/>
    <line x1="67.31" y1="98.21" x2="83.27" y2="114.17"
          style="fill:none;stroke:#fff;stroke-linecap:round;stroke-linejoin:round;stroke-width:0.5017075538635254px"/>
    <line x1="85.97" y1="31.84" x2="85.97" y2="18.73"
          style="fill:none;stroke:#fff;stroke-linecap:round;stroke-linejoin:round;stroke-width:0.5017075538635254px"/>
    <line x1="77.21" y1="9.97" x2="85.97" y2="18.73"
          style="fill:none;stroke:#fff;stroke-linecap:round;stroke-linejoin:round;stroke-width:0.5017075538635254px"/>
    <line x1="86.11" y1="31.63" x2="76.52" y2="41.2"
          style="fill:none;stroke:#fff;stroke-linecap:round;stroke-linejoin:round;stroke-width:0.5017075538635254px"/>
    <polyline points="-290.43 -430.47 296.57 -430.47 296.57 153.53 -290.43 153.53 -290.43 -430.47"
              style="fill:none;fill-rule:evenodd"/>
</svg>