<svg id="Слой_1" data-name="Слой 1" xmlns="http://www.w3.org/2000/svg" xmlns:xlink="http://www.w3.org/1999/xlink"
     viewBox="0 0 141.53 141.53">
    <defs>
        <clipPath id="clip-path">
            <polyline points="-148.9 -430.47 438.1 -430.47 438.1 153.53 -148.9 153.53 -148.9 -430.47"
                      style="fill:none;clip-rule:evenodd"/>
        </clipPath>
    </defs>
    <title>15Монтажная область 1</title>
    <polyline
            points="50.41 78.14 50.41 57.34 51.27 52.57 53.02 48.04 55.59 43.93 58.88 40.37 62.78 37.49 67.16 35.4 71.85 34.17 76.69 33.85 81.5 34.44 86.12 35.93 90.37 38.27 94.11 41.35 94.11 52.33 94.11 73.27 83.07 84.31 80.99 82.72 78.57 81.72 75.97 81.37 73.38 81.72 70.95 82.72 68.88 84.31 68.88 98.5 57.84 109.54 54.95 106.1 52.71 102.21 51.18 97.99 50.41 93.56 50.41 78.14"
            style="fill:blue;fill-rule:evenodd"/>
    <line x1="50.41" y1="62.8" x2="50.41" y2="93.56"
          style="fill:none;stroke:#fff;stroke-linecap:round;stroke-linejoin:round;stroke-width:0.7086614370346069px"/>
    <g style="clip-path:url(#clip-path)">
        <path d="M57.84,109.54a25.65,25.65,0,0,1-7.42-16"
              style="fill:none;stroke:#fff;stroke-linecap:round;stroke-linejoin:round;stroke-width:0px"/>
    </g>
    <line x1="57.84" y1="109.54" x2="68.88" y2="98.5"
          style="fill:none;stroke:#fff;stroke-linecap:round;stroke-linejoin:round;stroke-width:0px"/>
    <g style="clip-path:url(#clip-path)">
        <path d="M68.88,84.31a10,10,0,0,1,14.19,0"
              style="fill:none;stroke:#fff;stroke-linecap:round;stroke-linejoin:round;stroke-width:0px"/>
    </g>
    <line x1="83.07" y1="84.31" x2="94.11" y2="73.27"
          style="fill:none;stroke:#fff;stroke-linecap:round;stroke-linejoin:round;stroke-width:0px"/>
    <g style="clip-path:url(#clip-path)">
        <path d="M50.41,57.34a25.65,25.65,0,0,1,43.7-16"
              style="fill:none;stroke:#fff;stroke-linecap:round;stroke-linejoin:round;stroke-width:0px"/>
    </g>
    <polyline points="-148.9 -430.47 438.1 -430.47 438.1 153.53 -148.9 153.53 -148.9 -430.47"
              style="fill:none;fill-rule:evenodd"/>
    <g style="clip-path:url(#clip-path)">
        <path d="M57.79,77.59A25.65,25.65,0,0,1,94.11,41.35"
              style="fill:none;stroke:#fff;stroke-linecap:round;stroke-linejoin:round;stroke-width:0.7086614370346069px"/>
    </g>
    <g style="clip-path:url(#clip-path)">
        <path d="M61.38,74.08A20.63,20.63,0,1,1,90.56,44.9"
              style="fill:none;stroke:#fff;stroke-linecap:round;stroke-linejoin:round;stroke-width:0.5017075538635254px"/>
    </g>
    <g style="clip-path:url(#clip-path)">
        <path d="M68.88,77.56A10,10,0,1,1,83.07,63.37"
              style="fill:none;stroke:#fff;stroke-linecap:round;stroke-linejoin:round;stroke-width:0.5017075538635254px"/>
    </g>
    <g style="clip-path:url(#clip-path)">
        <path d="M57.84,109.54a25.65,25.65,0,0,1-7.51-18.14"
              style="fill:none;stroke:#fff;stroke-linecap:round;stroke-linejoin:round;stroke-width:0.7086614370346069px"/>
    </g>
    <g style="clip-path:url(#clip-path)">
        <path d="M68.88,84.31a10,10,0,0,1,14.19,0"
              style="fill:none;stroke:#fff;stroke-linecap:round;stroke-linejoin:round;stroke-width:0.5017075538635254px"/>
    </g>
    <line x1="57.84" y1="109.54" x2="57.84" y2="77.63"
          style="fill:none;stroke:#fff;stroke-linecap:round;stroke-linejoin:round;stroke-width:0.5017075538635254px"/>
    <line x1="57.84" y1="109.54" x2="94.11" y2="73.27"
          style="fill:none;stroke:#fff;stroke-linecap:round;stroke-linejoin:round;stroke-width:0.5017075538635254px"/>
    <line x1="83.07" y1="63.37" x2="90.56" y2="44.9"
          style="fill:none;stroke:#fff;stroke-linecap:round;stroke-linejoin:round;stroke-width:0.5017075538635254px"/>
    <line x1="57.84" y1="77.63" x2="61.38" y2="74.08"
          style="fill:none;stroke:#fff;stroke-linecap:round;stroke-linejoin:round;stroke-width:0.5017075538635254px"/>
    <line x1="90.56" y1="44.9" x2="94.11" y2="41.35"
          style="fill:none;stroke:#fff;stroke-linecap:round;stroke-linejoin:round;stroke-width:0.5017075538635254px"/>
    <line x1="68.88" y1="77.56" x2="61.38" y2="74.08"
          style="fill:none;stroke:#fff;stroke-linecap:round;stroke-linejoin:round;stroke-width:0.5017075538635254px"/>
    <line x1="94.11" y1="73.27" x2="94.11" y2="41.35"
          style="fill:none;stroke:#fff;stroke-linecap:round;stroke-linejoin:round;stroke-width:0.5017075538635254px"/>
    <line x1="68.88" y1="98.5" x2="68.88" y2="77.56"
          style="fill:none;stroke:#fff;stroke-linecap:round;stroke-linejoin:round;stroke-width:0.5017075538635254px"/>
    <line x1="83.07" y1="84.31" x2="83.07" y2="63.37"
          style="fill:none;stroke:#fff;stroke-linecap:round;stroke-linejoin:round;stroke-width:0.5017075538635254px"/>
    <line x1="57.84" y1="88.6" x2="68.88" y2="77.56"
          style="fill:none;stroke:#fff;stroke-linecap:round;stroke-linejoin:round;stroke-width:0.5017075538635254px"/>
    <polyline points="-148.9 -430.47 438.1 -430.47 438.1 153.53 -148.9 153.53 -148.9 -430.47"
              style="fill:none;fill-rule:evenodd"/>
</svg>