<svg id="Слой_1" data-name="Слой 1" xmlns="http://www.w3.org/2000/svg" viewBox="0 0 140.75 31.52"><title>2Монтажная область 1</title><polygon points="65.05 0 69.72 31.52 4.67 31.52 4.67 0 65.05 0" style="fill:#444"/><path d="M8.46,23.5a1.86,1.86,0,0,0,1.93,2,1.89,1.89,0,0,0,2-2V20.55h1.8V23.5A3.47,3.47,0,0,1,10.39,27,3.45,3.45,0,0,1,6.66,23.5V8.14A3.47,3.47,0,0,1,10.39,4.6a3.5,3.5,0,0,1,3.77,3.55v2.91h-1.8V8.14a1.91,1.91,0,0,0-2-2,1.89,1.89,0,0,0-1.93,2Z" style="fill:#ccc"/><path d="M17.11,4.72h1.8V26.88h-1.8Z" style="fill:#ccc"/><path d="M22.31,4.72H24l4.31,16.68h.06V4.72h1.74V26.88H28.42L24.11,10.2H24V26.88H22.31Z" style="fill:#ccc"/><path d="M33.08,4.72h7V6.24H34.89v10h4.59v1.52H34.89v7.58h5.22v1.52h-7Z" style="fill:#ccc"/><path d="M42.14,4.72h2.69l3.23,19.41h.06L51.45,4.72h2.66V26.88H52.37v-19H52.3l-3.13,19H47.08l-3.13-19h-.06v19H42.14Z" style="fill:#ccc"/><path d="M59.42,4.72H61.8l3.29,22.16H63.25l-.85-6H58.79l-.82,6H56.13Zm2.88,14.69L60.66,6.91H60.6l-1.68,12.5Z" style="fill:#ccc"/><path d="M68.42,4.72H76.3V6.24h-3V26.88h-1.8V6.24h-3Z" style="fill:#444"/><path d="M85.83,8.24V23.4a3.85,3.85,0,0,1-7.69,0V8.24a3.85,3.85,0,0,1,7.69,0ZM79.94,23.4a2,2,0,1,0,4.08,0V8.24a2,2,0,1,0-4.08,0Z" style="fill:#444"/><path d="M92.07,16.26H95.8V23.5a3.76,3.76,0,0,1-7.5,0V8.14a3.76,3.76,0,0,1,7.5,0v2.91H94V8.14a1.91,1.91,0,0,0-2-2,1.89,1.89,0,0,0-1.93,2V23.5a1.86,1.86,0,0,0,1.93,2,1.89,1.89,0,0,0,2-2V17.78H92.07Z" style="fill:#444"/><path d="M102.13,17.78h-1.8v9.1h-1.8V4.72h3.64A3.58,3.58,0,0,1,106,8.36v5.26c0,1.74-1,3.4-2.34,3.78l2.94,9.48h-1.87Zm0-1.52c1.14,0,2.06-1.31,2.06-2.64V8.36a2,2,0,0,0-2.06-2.12h-1.84v10Z" style="fill:#444"/><path d="M111.06,4.72h2.37l3.29,22.16h-1.84l-.85-6h-3.61l-.82,6h-1.84Zm2.88,14.69-1.65-12.5h-.06l-1.68,12.5Z" style="fill:#444"/><path d="M119.18,4.72h3.64a3.58,3.58,0,0,1,3.86,3.64v5.83a3.56,3.56,0,0,1-3.86,3.61H121v9.09h-1.8Zm3.64,11.56a2,2,0,0,0,2.06-2.09V8.36a2,2,0,0,0-2.06-2.12H121v10Z" style="fill:#444"/><path d="M128.94,4.72h1.8V16.26h4.11V4.72h1.8V26.88h-1.8v-9.1h-4.11v9.1h-1.8Z" style="fill:#444"/></svg>